<svg xmlns="http://www.w3.org/2000/svg" viewBox="0 0 686.51 331.34"><defs><style>.cls-1{fill:#4c7ff1;}.cls-2{fill:#7ac7fa;}.cls-3{fill:#5e9df3;}.cls-4{opacity:0.4;}.cls-5{opacity:0.5;}.cls-6{fill:#fff;}</style></defs><title>Recurso 13</title><g id="Capa_2" data-name="Capa 2"><g id="Capa_1-2" data-name="Capa 1"><rect class="cls-1" x="290.25" y="59.91" width="3.74" height="178.36"/><rect class="cls-1" x="255.42" y="86.95" width="152.16" height="3.74"/><circle class="cls-2" cx="292.12" cy="88.82" r="8.01"/><circle class="cls-1" cx="292.12" cy="88.82" r="2.91"/><path class="cls-3" d="M399.62,162.48l-25.39-60.71V77.34h4.19A1.37,1.37,0,0,0,379.79,76V70.76a1.37,1.37,0,0,0-1.37-1.37H352.86a1.37,1.37,0,0,0-1.37,1.37V76a1.37,1.37,0,0,0,1.37,1.37h4.19v24.43l-25.4,60.71c-2.09,5,2,10.33,8,10.33h52C397.59,172.81,401.71,167.47,399.62,162.48Z"/><path class="cls-2" d="M350.9,129.34l-14.68,35.74a1.88,1.88,0,0,0,1.72,2.6c10.14.1,45.23.07,55.38,0a1.88,1.88,0,0,0,1.72-2.6l-14.68-35.72Z"/><path class="cls-1" d="M351.49,75.09V76a1.37,1.37,0,0,0,1.37,1.37h4.19v24.43l-25.4,60.71c-2.09,5,2,10.33,8,10.33h26.26V75.09Z"/><g class="cls-4"><path class="cls-2" d="M365.94,129.34h-15l-14.68,35.74a1.88,1.88,0,0,0,1.72,2.6c5.12,0,16.59.07,28,.06Z"/></g><g class="cls-4"><circle class="cls-1" cx="375.41" cy="138.49" r="4.68"/></g><g class="cls-4"><circle class="cls-1" cx="371.52" cy="152.3" r="3.39"/></g><circle class="cls-2" cx="292.12" cy="131.08" r="8.01"/><circle class="cls-1" cx="292.12" cy="131.08" r="2.91"/><rect class="cls-1" x="361.21" y="206.18" width="9.46" height="14.8"/><path class="cls-1" d="M377.13,235.44H354.75a10,10,0,1,1,0-20h22.38a10,10,0,0,1,0,20Z"/><g class="cls-4"><path class="cls-1" d="M365.86,232.75V222.37H349a6.75,6.75,0,0,0,5.7,10.39Z"/></g><path class="cls-2" d="M382.91,222.37h-15.7V201.44h-2.48v20.93H349a6.75,6.75,0,0,0,5.7,10.39h22.53a6.75,6.75,0,0,0,5.7-10.39Z"/><g class="cls-4"><circle class="cls-1" cx="379.83" cy="226.51" r="2.54"/></g><rect class="cls-2" x="364.74" y="197.61" width="2.48" height="4.36"/><circle class="cls-2" cx="362.92" cy="51.05" r="3.47"/><circle class="cls-2" cx="376.47" cy="30.05" r="7.48"/><circle class="cls-2" cx="362.6" cy="19.84" r="4.7"/><path class="cls-1" d="M359.41,204.74h13.07a1.26,1.26,0,0,1,1.26,1.26v1.85a1.27,1.27,0,0,1-1.27,1.27H359.41a1.27,1.27,0,0,1-1.27-1.27V206A1.26,1.26,0,0,1,359.41,204.74Z"/><g class="cls-4"><path class="cls-1" d="M365.86,215.39v-6.27h-4.64v6.27h-6.46a10,10,0,1,0,0,20h11.11v-20Z"/></g><path class="cls-1" d="M360,193.32c0,3.77,2.32,7.15,6,9.44,3.66-2.29,6-5.67,6-9.44s-2.32-7.15-6-9.44C362.28,186.17,360,189.55,360,193.32Z"/><path class="cls-3" d="M362.31,193.32a7.67,7.67,0,0,0,3.63,6.26,7.22,7.22,0,0,0,0-12.53A7.67,7.67,0,0,0,362.31,193.32Z"/><rect class="cls-1" x="171.89" y="177.06" width="4.86" height="60.06"/><rect class="cls-1" x="261.78" y="177.06" width="4.86" height="60.06"/><rect class="cls-2" x="441.35" y="232.69" width="113.31" height="5.59"/><rect class="cls-2" x="525.41" y="232.69" width="78.29" height="5.59"/><rect class="cls-2" x="96.23" y="232.69" width="78.28" height="5.59"/><rect class="cls-1" x="170.84" y="232.69" width="375.22" height="5.59" transform="translate(716.9 470.98) rotate(180)"/><g class="cls-5"><path class="cls-2" d="M13.93,238.37v-.08H671a15.51,15.51,0,1,1,0,31H13.93v-.08a15.51,15.51,0,0,1,0-30.86Z"/></g><path class="cls-2" d="M168.83,300.52v-.19h304a15.51,15.51,0,1,1,0,31h-304v-.19a15.49,15.49,0,0,1,0-30.63Z"/><path class="cls-2" d="M67.9,269.31H635.35a15.51,15.51,0,1,1,0,31H67.9a15.51,15.51,0,0,1,0-31Z"/><g class="cls-5"><path class="cls-2" d="M86.27,238.29H602.54a15.51,15.51,0,1,1,0,31H86.27a15.51,15.51,0,1,1,0-31Z"/></g><g class="cls-5"><path class="cls-2" d="M135.06,300.32H525.75a15.51,15.51,0,1,1,0,31H135.06a15.51,15.51,0,0,1,0-31Z"/></g><g class="cls-5"><path class="cls-1" d="M148.38,269.31H547.21a15.51,15.51,0,0,1,0,31H148.38a15.51,15.51,0,0,1,0-31Z"/></g><path class="cls-6" d="M198.25,169H186.8V223.5a5.72,5.72,0,0,0,11.44,0Z"/><path class="cls-3" d="M184.49,164h16.08A1.39,1.39,0,0,1,202,165.4v2.53a1.38,1.38,0,0,1-1.38,1.38H184.49a1.38,1.38,0,0,1-1.38-1.38V165.4A1.39,1.39,0,0,1,184.49,164Z"/><path class="cls-3" d="M198.25,169H186.8V223.5a5.72,5.72,0,0,0,11.44,0Z"/><path class="cls-2" d="M192.53,226.8a3.31,3.31,0,0,1-3.31-3.31v-30h6.61v30A3.31,3.31,0,0,1,192.53,226.8Z"/><path class="cls-1" d="M186.93,224.65c0,.14.09.28.13.42a5.49,5.49,0,0,0,.21.66c.06.15.16.28.23.42a5.15,5.15,0,0,0,.3.55,4,4,0,0,0,.3.37,5.51,5.51,0,0,0,.4.48c.12.12.25.21.38.31a5.4,5.4,0,0,0,.47.39c.14.09.3.16.45.24a4.83,4.83,0,0,0,.52.28,4.77,4.77,0,0,0,.5.16,5.44,5.44,0,0,0,.58.18c.17,0,.35,0,.53.05a6,6,0,0,0,.63.06s0-61.69,0-61.69H183.1v.5a1.28,1.28,0,0,0,1.28,1.29h2.43V223.5A5.76,5.76,0,0,0,186.93,224.65Z"/><g class="cls-4"><path class="cls-2" d="M192.56,226.8V193.49h-3.34v30A3.31,3.31,0,0,0,192.56,226.8Z"/></g><path class="cls-6" d="M225,169H213.58V223.5a5.72,5.72,0,0,0,11.44,0Z"/><path class="cls-3" d="M211.26,164h16.08a1.39,1.39,0,0,1,1.39,1.39v2.53a1.38,1.38,0,0,1-1.38,1.38H211.26a1.39,1.39,0,0,1-1.39-1.39V165.4A1.39,1.39,0,0,1,211.26,164Z"/><path class="cls-3" d="M225,169H213.58V223.5a5.72,5.72,0,0,0,11.44,0Z"/><path class="cls-2" d="M219.3,226.8A3.31,3.31,0,0,1,216,223.5v-30h6.61v30A3.31,3.31,0,0,1,219.3,226.8Z"/><path class="cls-1" d="M213.7,224.65c0,.14.09.28.13.42a5.49,5.49,0,0,0,.21.66c.06.15.16.28.23.42a5.17,5.17,0,0,0,.3.55,4,4,0,0,0,.3.37,5.51,5.51,0,0,0,.4.48c.12.12.25.21.38.31a5.41,5.41,0,0,0,.47.39c.14.09.3.16.45.24a4.83,4.83,0,0,0,.52.28,4.77,4.77,0,0,0,.5.16,5.44,5.44,0,0,0,.58.18c.17,0,.35,0,.53.05a6,6,0,0,0,.63.06s0-61.69,0-61.69h-9.46v.5a1.28,1.28,0,0,0,1.28,1.29h2.43V223.5A5.76,5.76,0,0,0,213.7,224.65Z"/><g class="cls-4"><path class="cls-2" d="M219.33,226.8V193.49H216v30A3.31,3.31,0,0,0,219.33,226.8Z"/></g><path class="cls-6" d="M225,169H213.58V223.5a5.72,5.72,0,0,0,11.44,0Z"/><path class="cls-3" d="M211.26,164h16.08a1.39,1.39,0,0,1,1.39,1.39v2.53a1.38,1.38,0,0,1-1.38,1.38H211.26a1.39,1.39,0,0,1-1.39-1.39V165.4A1.39,1.39,0,0,1,211.26,164Z"/><path class="cls-3" d="M225,169H213.58V223.5a5.72,5.72,0,0,0,11.44,0Z"/><path class="cls-2" d="M219.3,226.8A3.31,3.31,0,0,1,216,223.5v-30h6.61v30A3.31,3.31,0,0,1,219.3,226.8Z"/><path class="cls-1" d="M213.7,224.65c0,.14.09.28.13.42a5.49,5.49,0,0,0,.21.66c.06.15.16.28.23.42a5.17,5.17,0,0,0,.3.55,4,4,0,0,0,.3.37,5.51,5.51,0,0,0,.4.48c.12.12.25.21.38.31a5.41,5.41,0,0,0,.47.39c.14.09.3.16.45.24a4.83,4.83,0,0,0,.52.28,4.77,4.77,0,0,0,.5.16,5.44,5.44,0,0,0,.58.18c.17,0,.35,0,.53.05a6,6,0,0,0,.63.06s0-61.69,0-61.69h-9.46v.5a1.28,1.28,0,0,0,1.28,1.29h2.43V223.5A5.76,5.76,0,0,0,213.7,224.65Z"/><g class="cls-4"><path class="cls-2" d="M219.33,226.8V193.49H216v30A3.31,3.31,0,0,0,219.33,226.8Z"/></g><path class="cls-6" d="M253.33,169H241.88V223.5a5.72,5.72,0,0,0,11.44,0Z"/><path class="cls-3" d="M239.57,164h16.08A1.39,1.39,0,0,1,257,165.4v2.53a1.38,1.38,0,0,1-1.38,1.38H239.57a1.38,1.38,0,0,1-1.38-1.38V165.4A1.39,1.39,0,0,1,239.57,164Z"/><path class="cls-3" d="M253.33,169H241.88V223.5a5.72,5.72,0,0,0,11.44,0Z"/><path class="cls-2" d="M247.61,226.8a3.31,3.31,0,0,1-3.31-3.31v-30h6.61v30A3.31,3.31,0,0,1,247.61,226.8Z"/><path class="cls-1" d="M242,224.65c0,.14.09.28.13.42a5.47,5.47,0,0,0,.21.66c.06.15.16.28.23.42a5.15,5.15,0,0,0,.3.55,4,4,0,0,0,.3.37,5.53,5.53,0,0,0,.4.48c.12.12.25.21.38.31a5.4,5.4,0,0,0,.47.39c.14.09.3.16.45.24a2.93,2.93,0,0,0,1,.44,5.43,5.43,0,0,0,.58.18c.17,0,.35,0,.53.05a6,6,0,0,0,.63.06s0-61.69,0-61.69h-9.46v.5a1.28,1.28,0,0,0,1.28,1.29h2.43V223.5A5.76,5.76,0,0,0,242,224.65Z"/><g class="cls-4"><path class="cls-2" d="M247.64,226.8V193.49H244.3v30A3.31,3.31,0,0,0,247.64,226.8Z"/></g><rect class="cls-2" x="171.89" y="177.06" width="94.76" height="4.86"/><polygon class="cls-1" points="559.16 203.02 523.93 176.93 488.7 203.02 488.7 82.1 559.16 82.1 559.16 203.02"/><g class="cls-4"><polygon class="cls-1" points="523.93 176.93 488.7 203.02 488.7 82.1 524.3 82.1 523.93 176.93"/></g><path class="cls-2" d="M562.24,209.12l-38.3-28.37-38.3,28.38V79h76.61Zm-38.3-36,32.16,23.82V85.18H491.77V196.93Z"/><g class="cls-4"><path class="cls-1" d="M523.93,180.75l-38.3,28.38V79H524.3v6.14H491.77V196.93l32.16-23.82Z"/></g><path class="cls-1" d="M599.84,75.82c0,7.48-14.6,12.56-16.79,19.3-2.27,7,6.47,19.67,2.24,25.49s-19.06,1.46-24.94,5.73-6.16,19.69-13.15,22c-6.75,2.19-16.07-10-23.55-10s-16.8,12.23-23.55,10c-7-2.27-7.33-17.72-13.15-22s-20.66.14-24.94-5.73,4.51-18.5,2.24-25.49c-2.19-6.75-16.79-11.83-16.79-19.3s14.6-12.56,16.79-19.3c2.27-7-6.47-19.67-2.24-25.49s19.06-1.46,24.94-5.74,6.16-19.68,13.15-22c6.75-2.19,16.07,10,23.55,10s16.8-12.23,23.55-10c7,2.27,7.33,17.72,13.15,22S581,25.15,585.29,31s-4.51,18.5-2.24,25.49C585.24,63.27,599.84,68.35,599.84,75.82Z"/><g class="cls-4"><path class="cls-1" d="M523.65,13.38c-7.48,0-16.8-12.23-23.55-10-7,2.27-7.33,17.72-13.15,22S466.28,25.15,462,31s4.51,18.5,2.24,25.49c-2.19,6.75-16.79,11.83-16.79,19.3s14.6,12.56,16.79,19.3c2.27,7-6.47,19.67-2.24,25.49s19.06,1.46,24.94,5.73,6.16,19.69,13.15,22c6.75,2.19,16.07-10,23.55-10Z"/></g><path class="cls-2" d="M501.82,151.65a8.59,8.59,0,0,1-2.67-.42c-5.25-1.7-7.37-7.65-9.41-13.4-1.27-3.57-2.72-7.63-4.6-9s-6.08-1.52-10.1-1.64c-6.05-.18-12.31-.36-15.52-4.77s-1.43-10.34.25-16.12c1.13-3.89,2.3-7.91,1.55-10.23-.7-2.14-4.05-4.72-7-7-4.88-3.75-9.92-7.63-9.92-13.25s5-9.5,9.92-13.25c3-2.28,6.32-4.86,7-7,.75-2.32-.42-6.34-1.55-10.23-1.68-5.78-3.42-11.75-.25-16.12S469,24.63,475,24.45c4-.12,8.17-.24,10.1-1.64s3.32-5.42,4.6-9c2-5.75,4.16-11.69,9.41-13.4,5-1.64,10.14,1.83,15.06,5.18,3.4,2.31,6.91,4.71,9.43,4.71s6-2.39,9.44-4.71c4.92-3.35,10-6.82,15.06-5.18,5.25,1.71,7.37,7.65,9.41,13.4,1.27,3.58,2.72,7.63,4.6,9s6.08,1.52,10.1,1.64c6.05.18,12.31.36,15.52,4.77s1.43,10.34-.25,16.12c-1.13,3.89-2.3,7.91-1.55,10.23.7,2.14,4.05,4.72,7,7,4.88,3.75,9.92,7.63,9.92,13.25s-5,9.5-9.92,13.25c-3,2.28-6.32,4.87-7,7-.75,2.32.42,6.34,1.55,10.23,1.68,5.78,3.42,11.75.25,16.12s-9.47,4.59-15.52,4.77c-4,.12-8.18.24-10.1,1.64s-3.32,5.42-4.6,9c-2,5.75-4.16,11.69-9.41,13.4-5.05,1.64-10.14-1.83-15.06-5.18-3.4-2.31-6.91-4.71-9.44-4.71s-6,2.39-9.43,4.71C510.16,148.81,506,151.65,501.82,151.65Zm21.82-16.45c4.42,0,8.73,2.93,12.89,5.77,3.53,2.4,7.52,5.13,9.71,4.42,2.37-.77,4-5.47,5.52-9.61,1.65-4.63,3.35-9.42,6.77-11.9s8.58-2.67,13.53-2.82c4.36-.13,9.3-.27,10.73-2.24s0-6.63-1.18-10.78c-1.39-4.78-2.83-9.73-1.5-13.85,1.28-4,5.26-7,9.12-10,3.53-2.71,7.52-5.79,7.52-8.38s-4-5.67-7.52-8.38c-3.85-3-7.83-6-9.12-10-1.34-4.12.1-9.06,1.5-13.85,1.21-4.15,2.58-8.86,1.18-10.78s-6.37-2.11-10.73-2.24c-5-.15-10.07-.3-13.53-2.82s-5.12-7.27-6.77-11.9c-1.48-4.15-3.15-8.84-5.52-9.61-2.19-.71-6.18,2-9.71,4.42-4.17,2.84-8.47,5.77-12.89,5.77s-8.73-2.93-12.89-5.77c-3.53-2.4-7.52-5.13-9.71-4.42-2.37.77-4,5.47-5.52,9.61-1.65,4.63-3.35,9.42-6.77,11.9s-8.58,2.67-13.53,2.82c-4.36.13-9.3.27-10.73,2.24s0,6.63,1.18,10.78c1.39,4.79,2.83,9.73,1.5,13.85-1.28,4-5.26,7-9.11,10-3.53,2.71-7.52,5.79-7.52,8.38s4,5.66,7.52,8.38c3.85,3,7.83,6,9.12,10,1.34,4.12-.1,9.06-1.5,13.85-1.21,4.15-2.58,8.86-1.18,10.78s6.37,2.11,10.73,2.24c5,.15,10.07.3,13.53,2.82s5.12,7.27,6.77,11.9c1.48,4.15,3.15,8.84,5.52,9.62,2.18.71,6.18-2,9.71-4.42C514.92,138.13,519.23,135.19,523.65,135.19Z"/><g class="cls-4"><path class="cls-1" d="M557.56,13.82,523.65,141.34c-2.52,0-6,2.39-9.43,4.71-4.05,2.76-8.22,5.6-12.39,5.6a8.59,8.59,0,0,1-2.67-.42c-5.25-1.7-7.37-7.65-9.41-13.4-1.27-3.57-2.72-7.63-4.6-9s-6.08-1.52-10.1-1.64c-6.05-.18-12.31-.36-15.52-4.77s-1.43-10.34.25-16.12c1.13-3.89,2.3-7.91,1.55-10.23-.7-2.14-4.05-4.72-7-7-4.88-3.75-9.92-7.63-9.92-13.25s5-9.5,9.92-13.25c3-2.28,6.32-4.86,7-7,.75-2.32-.42-6.34-1.55-10.23-1.68-5.78-3.42-11.75-.25-16.12S469,24.63,475,24.45c4-.12,8.17-.24,10.1-1.64s3.32-5.42,4.6-9c2-5.75,4.16-11.69,9.41-13.4,5-1.64,10.14,1.83,15.06,5.18,3.4,2.31,6.91,4.71,9.43,4.71v6.15c-4.42,0-8.73-2.93-12.89-5.77-3.53-2.4-7.52-5.13-9.71-4.42-2.37.77-4,5.47-5.52,9.61-1.65,4.63-3.35,9.42-6.77,11.9s-8.58,2.67-13.53,2.82c-4.36.13-9.3.27-10.73,2.24s0,6.63,1.18,10.78c1.39,4.79,2.83,9.73,1.5,13.85-1.28,4-5.26,7-9.11,10-3.53,2.71-7.52,5.79-7.52,8.38s4,5.66,7.52,8.38c3.85,3,7.83,6,9.12,10,1.34,4.12-.1,9.06-1.5,13.85-1.21,4.15-2.58,8.86-1.18,10.78s6.37,2.11,10.73,2.24c5,.15,10.07.3,13.53,2.82s5.12,7.27,6.77,11.9c1.48,4.15,3.15,8.84,5.52,9.62,2.18.71,6.18-2,9.71-4.42,4.17-2.84,8.48-5.77,12.89-5.77Z"/></g><circle class="cls-6" cx="523.65" cy="75.82" r="52.13"/><path class="cls-2" d="M523.65,131a55.2,55.2,0,1,1,55.2-55.2A55.27,55.27,0,0,1,523.65,131Zm0-104.26a49.06,49.06,0,1,0,49.06,49.06A49.12,49.12,0,0,0,523.65,26.76Z"/><g class="cls-4"><path class="cls-1" d="M523.65,131a55.2,55.2,0,1,1,0-110.41v6.14a49.06,49.06,0,0,0,0,98.12Z"/></g><path class="cls-2" d="M510.16,104.46h-.3a4.33,4.33,0,0,1-3.27-1.87L492,81.38a4.33,4.33,0,1,1,7.14-4.9l11.46,16.71,39.84-43.46a4.33,4.33,0,0,1,6.38,5.85l-43.52,47.48A4.33,4.33,0,0,1,510.16,104.46Z"/></g></g></svg>