<svg xmlns="http://www.w3.org/2000/svg" viewBox="0 0 73.02 69.66"><defs><style>.cls-1{isolation:isolate;}.cls-2,.cls-3{fill:#b6e436;}.cls-2{mix-blend-mode:multiply;}</style></defs><title>Recurso 6</title><g class="cls-1"><g id="Capa_2" data-name="Capa 2"><g id="Capa_1-2" data-name="Capa 1"><rect class="cls-2" x="19.38" y="6.92" width="8.84" height="59.93"/><rect class="cls-3" x="32.06" y="21.47" width="8.84" height="45.37"/><rect class="cls-2" x="32.06" y="21.47" width="8.84" height="45.37"/><rect class="cls-3" x="44.73" y="14.33" width="8.84" height="52.52"/><rect class="cls-3" x="57.41" y="24.85" width="8.84" height="42"/><rect class="cls-2" x="57.41" y="24.85" width="8.84" height="42"/><rect class="cls-3" x="2.94" y="66.55" width="70.07" height="3.11" rx="1.55" ry="1.55"/><rect class="cls-2" x="2.94" y="66.55" width="70.07" height="3.11" rx="1.55" ry="1.55"/><rect class="cls-2" x="2.94" y="66.55" width="70.07" height="3.11" rx="1.55" ry="1.55"/><rect class="cls-2" x="2.94" y="66.55" width="70.07" height="3.11" rx="1.55" ry="1.55"/><path class="cls-2" d="M9.67,66.55v-65A1.56,1.56,0,0,1,11.23,0h0a1.56,1.56,0,0,1,1.55,1.55v65Z"/><path class="cls-2" d="M9.67,66.55v-65A1.56,1.56,0,0,1,11.23,0h0a1.56,1.56,0,0,1,1.55,1.55v65Z"/><rect class="cls-3" y="8.14" width="6.19" height="1.88" rx="0.94" ry="0.94"/><rect class="cls-3" y="17.7" width="6.19" height="1.88" rx="0.94" ry="0.94"/><rect class="cls-3" y="27.26" width="6.19" height="1.88" rx="0.94" ry="0.94"/><rect class="cls-3" y="36.82" width="6.19" height="1.88" rx="0.94" ry="0.94"/><rect class="cls-3" y="46.38" width="6.19" height="1.88" rx="0.94" ry="0.94"/><rect class="cls-3" y="55.93" width="6.19" height="1.88" rx="0.94" ry="0.94"/></g></g></g></svg>