<svg xmlns="http://www.w3.org/2000/svg" viewBox="0 0 66.38 77.05"><defs><style>.cls-1{isolation:isolate;}.cls-2,.cls-3{fill:#b6e436;}.cls-3{mix-blend-mode:multiply;}.cls-4{fill:#fff;}</style></defs><title>Recurso 9</title><g class="cls-1"><g id="Capa_2" data-name="Capa 2"><g id="Capa_1-2" data-name="Capa 1"><circle class="cls-2" cx="54.66" cy="6.43" r="6.43"/><path class="cls-3" d="M54.66,0a6.43,6.43,0,0,0,0,12.86Z"/><path class="cls-2" d="M60.3,14H49a6.09,6.09,0,0,0-6.07,6.07V33a6.09,6.09,0,0,0,4.33,5.81V25.64c0-2.13.83-3.1,1.14-3.1V57a3,3,0,0,0,3.05,3h6.88a2.6,2.6,0,0,0,2.59-2.59V22.54c.31,0,1.14,1.06,1.14,2.83V38.8A6.09,6.09,0,0,0,66.38,33V20.11A6.09,6.09,0,0,0,60.3,14Z"/><path class="cls-3" d="M54.66,14H49a6.09,6.09,0,0,0-6.07,6.07V33a6.09,6.09,0,0,0,4.33,5.81V25.18c0-1.2.68-2.64,1.14-2.64V57a3,3,0,0,0,3.05,3h3.2Z"/><rect class="cls-4" x="54.39" y="36.27" width="0.75" height="24.63" rx="0.38" ry="0.38"/><circle class="cls-2" cx="11.72" cy="6.47" r="6.43"/><path class="cls-3" d="M11.72,0a6.43,6.43,0,1,0,0,12.86Z"/><path class="cls-2" d="M17.36,14.09H6.07A6.09,6.09,0,0,0,0,20.16V33a6.09,6.09,0,0,0,4.33,5.81V25.68c0-2.13.83-3.1,1.14-3.1V57.05a3,3,0,0,0,3.05,3H15.4A2.6,2.6,0,0,0,18,57.49V22.59c.31,0,1.14,1.06,1.14,2.83V38.85A6.09,6.09,0,0,0,23.43,33V20.16A6.09,6.09,0,0,0,17.36,14.09Z"/><path class="cls-3" d="M11.72,14.09H6.07A6.09,6.09,0,0,0,0,20.16V33a6.09,6.09,0,0,0,4.33,5.81V25.23c0-1.2.68-2.64,1.14-2.64V57.05a3,3,0,0,0,3.05,3h3.2Z"/><rect class="cls-4" x="11.45" y="36.32" width="0.75" height="24.63" rx="0.38" ry="0.38"/><circle class="cls-2" cx="33.26" cy="11.51" r="7.73"/><path class="cls-3" d="M33.26,3.78a7.73,7.73,0,0,0,0,15.47Z"/><path class="cls-3" d="M33.26,3.78a7.73,7.73,0,0,0,0,15.47Z"/><path class="cls-2" d="M40,20.67H26.47a7.32,7.32,0,0,0-7.3,7.3v15.5a7.33,7.33,0,0,0,5.21,7V34.62c0-2.56,1-3.72,1.37-3.72V72.36A3.65,3.65,0,0,0,29.41,76h8.27a3.12,3.12,0,0,0,3.12-3.12v-42c.38,0,1.37,1.27,1.37,3.41V50.46a7.33,7.33,0,0,0,5.18-7V28A7.32,7.32,0,0,0,40,20.67Z"/><path class="cls-3" d="M33.26,20.67H26.47a7.32,7.32,0,0,0-7.3,7.3v15.5a7.33,7.33,0,0,0,5.21,7V34.08c0-1.44.82-3.18,1.37-3.18V72.36A3.65,3.65,0,0,0,29.41,76h3.85Z"/><path class="cls-3" d="M33.26,20.67H26.47a7.32,7.32,0,0,0-7.3,7.3v15.5a7.33,7.33,0,0,0,5.21,7V34.08c0-1.44.82-3.18,1.37-3.18V72.36A3.65,3.65,0,0,0,29.41,76h3.85Z"/><rect class="cls-4" x="32.94" y="47.42" width="0.91" height="29.63" rx="0.44" ry="0.44"/></g></g></g></svg>