<svg xmlns="http://www.w3.org/2000/svg" viewBox="0 0 71.24 97.29"><defs><style>.cls-1{isolation:isolate;}.cls-2,.cls-3{fill:#b6e436;}.cls-3{mix-blend-mode:multiply;}.cls-4{fill:#8cd145;}</style></defs><title>Recurso 5</title><g class="cls-1"><g id="Capa_2" data-name="Capa 2"><g id="Capa_1-2" data-name="Capa 1"><path class="cls-2" d="M57.15,64.61v-6.5l-14.7,6.5V57.87L27.81,64.61V31.92h-11V97.29H71.24V58.18ZM39.21,71.14h-9V68.2h9Zm14.7,0h-9V68.2h9Zm14.7,0h-9V68.2h9Z"/><path class="cls-3" d="M57.15,64.61v-6.5l-14.7,6.5V57.87L27.81,64.61V31.92h-11V97.29H71.24V58.18ZM39.21,71.14h-9V68.2h9Zm14.7,0h-9V68.2h9Zm14.7,0h-9V68.2h9Z"/><path class="cls-2" d="M57.15,64.61v-6.5l-14.7,6.5,0,32.69H71.24V58.18ZM53.9,71.14h-9V68.2h9Zm14.7,0h-9V68.2h9Z"/><path id="_Trazado_" data-name="&lt;Trazado&gt;" class="cls-4" d="M8.21,19.62a4.74,4.74,0,0,0,1.56-.29A3.52,3.52,0,0,0,12,17c.76-2.41-.26-6.25-.62-7.48-1,.8-4,3.37-4.79,5.78a3.53,3.53,0,0,0,.49,3.22A4.83,4.83,0,0,0,8.21,19.62Z"/><path id="_Trazado_2" data-name="&lt;Trazado&gt;" class="cls-3" d="M8.21,19.62a4.74,4.74,0,0,0,1.56-.29A3.52,3.52,0,0,0,12,17c.76-2.41-.26-6.25-.62-7.48-1,.8-4,3.37-4.79,5.78a3.53,3.53,0,0,0,.49,3.22A4.83,4.83,0,0,0,8.21,19.62Z"/><path id="_Trazado_3" data-name="&lt;Trazado&gt;" class="cls-2" d="M8.21,19.62a4.74,4.74,0,0,0,1.56-.29A3.52,3.52,0,0,0,12,17c.76-2.41-.26-6.25-.62-7.48Z"/><path id="_Trazado_4" data-name="&lt;Trazado&gt;" class="cls-4" d="M22.67,28.43a5.25,5.25,0,0,0,1-1.42,3.9,3.9,0,0,0,0-3.6c-1.22-2.52-5-4.83-6.19-5.55-.2,1.41-.68,5.78.54,8.3a3.91,3.91,0,0,0,2.85,2.22A5.36,5.36,0,0,0,22.67,28.43Z"/><path id="_Trazado_5" data-name="&lt;Trazado&gt;" class="cls-3" d="M22.67,28.43a5.25,5.25,0,0,0,1-1.42,3.9,3.9,0,0,0,0-3.6c-1.22-2.52-5-4.83-6.19-5.55-.2,1.41-.68,5.78.54,8.3a3.91,3.91,0,0,0,2.85,2.22A5.36,5.36,0,0,0,22.67,28.43Z"/><path id="_Trazado_6" data-name="&lt;Trazado&gt;" class="cls-2" d="M22.67,28.43a5.25,5.25,0,0,0,1-1.42,3.9,3.9,0,0,0,0-3.6c-1.22-2.52-5-4.83-6.19-5.55Z"/><path id="_Trazado_7" data-name="&lt;Trazado&gt;" class="cls-4" d="M3.16,8.53a3.93,3.93,0,0,0,1-.88A2.92,2.92,0,0,0,4.7,5C4.19,3,1.81.71,1,0,.65,1-.37,4.13.14,6.16A2.92,2.92,0,0,0,1.88,8.21,4,4,0,0,0,3.16,8.53Z"/><path id="_Trazado_8" data-name="&lt;Trazado&gt;" class="cls-3" d="M3.16,8.53a3.93,3.93,0,0,0,1-.88A2.92,2.92,0,0,0,4.7,5C4.19,3,1.81.71,1,0,.65,1-.37,4.13.14,6.16A2.92,2.92,0,0,0,1.88,8.21,4,4,0,0,0,3.16,8.53Z"/><path id="_Trazado_9" data-name="&lt;Trazado&gt;" class="cls-2" d="M3.16,8.53a3.93,3.93,0,0,0,1-.88A2.92,2.92,0,0,0,4.7,5C4.19,3,1.81.71,1,0Z"/></g></g></g></svg>