<svg xmlns="http://www.w3.org/2000/svg" viewBox="0 0 42.35 85.15"><defs><style>.cls-1{isolation:isolate;}.cls-2,.cls-3{fill:#b6e436;}.cls-3{mix-blend-mode:multiply;}</style></defs><title>Recurso 7</title><g class="cls-1"><g id="Capa_2" data-name="Capa 2"><g id="Capa_1-2" data-name="Capa 1"><circle class="cls-2" cx="16.96" cy="14.39" r="2.08"/><circle class="cls-2" cx="24.34" cy="3.94" r="3.94"/><path class="cls-2" d="M42,78.81,26.44,41.59v-15H29a.84.84,0,0,0,.84-.84v-3.2a.84.84,0,0,0-.84-.84H13.34a.84.84,0,0,0-.84.84v3.2a.84.84,0,0,0,.84.84h2.57v15L.34,78.81c-1.28,3.06,1.25,6.33,4.9,6.33H37.11C40.76,85.15,43.29,81.88,42,78.81Z"/><path class="cls-2" d="M21.36,58.49H12.14l-9,21.91A1.15,1.15,0,0,0,4.19,82c3.14,0,10.17,0,17.17,0Z"/><path class="cls-3" d="M12.5,25.23v.54a.84.84,0,0,0,.84.84h2.57v15L.34,78.81c-1.28,3.06,1.25,6.33,4.9,6.33H21.34V25.23Z"/><path class="cls-3" d="M12.14,58.49l-9,21.91A1.15,1.15,0,0,0,4.19,82c6.22.06,27.74,0,34,0A1.15,1.15,0,0,0,39.2,80.4l-9-21.9Z"/><path class="cls-2" d="M27.16,67a2.87,2.87,0,0,1,0-5.74"/><path class="cls-2" d="M24.78,74.65a2.08,2.08,0,0,1,0-4.15"/><path class="cls-2" d="M27.16,61.23a2.87,2.87,0,0,1,0,5.74"/><path class="cls-2" d="M24.78,70.5a2.08,2.08,0,0,1,0,4.15"/></g></g></g></svg>