<svg xmlns="http://www.w3.org/2000/svg" viewBox="0 0 53.13 49"><defs><style>.cls-1{isolation:isolate;}.cls-2{fill:#8cd145;}.cls-3,.cls-4{fill:#b6e436;}.cls-3{mix-blend-mode:multiply;}</style></defs><title>Recurso 8</title><g class="cls-1"><g id="Capa_2" data-name="Capa 2"><g id="Capa_1-2" data-name="Capa 1"><path id="_Trazado_" data-name="&lt;Trazado&gt;" class="cls-2" d="M18.82,48.09a22.39,22.39,0,0,0,5.37-5.22,16.63,16.63,0,0,0,2.63-15.13C23.47,16.29,9.42,3.89,4.76,0c-1.85,5.78-7,23.81-3.66,35.25A16.65,16.65,0,0,0,11.48,46.59,22.83,22.83,0,0,0,18.82,48.09Z"/><path id="_Trazado_2" data-name="&lt;Trazado&gt;" class="cls-3" d="M18.82,48.09a22.39,22.39,0,0,0,5.37-5.22,16.63,16.63,0,0,0,2.63-15.13C23.47,16.29,9.42,3.89,4.76,0c-1.85,5.78-7,23.81-3.66,35.25A16.65,16.65,0,0,0,11.48,46.59,22.83,22.83,0,0,0,18.82,48.09Z"/><path id="_Trazado_3" data-name="&lt;Trazado&gt;" class="cls-4" d="M18.82,48.09a22.39,22.39,0,0,0,5.37-5.22,16.63,16.63,0,0,0,2.63-15.13C23.47,16.29,9.42,3.89,4.76,0Z"/><path id="_Trazado_4" data-name="&lt;Trazado&gt;" class="cls-2" d="M35,48.75a16.69,16.69,0,0,0,5.58,0,12.39,12.39,0,0,0,9.32-6.66c4.21-7.83,3.25-21.77,2.81-26.27-4,2.1-16.18,9-20.39,16.8a12.41,12.41,0,0,0-.43,11.45A17,17,0,0,0,35,48.75Z"/><path id="_Trazado_5" data-name="&lt;Trazado&gt;" class="cls-3" d="M35,48.75a16.69,16.69,0,0,0,5.58,0,12.39,12.39,0,0,0,9.32-6.66c4.21-7.83,3.25-21.77,2.81-26.27-4,2.1-16.18,9-20.39,16.8a12.41,12.41,0,0,0-.43,11.45A17,17,0,0,0,35,48.75Z"/><path id="_Trazado_6" data-name="&lt;Trazado&gt;" class="cls-4" d="M35,48.75a16.69,16.69,0,0,0,5.58,0,12.39,12.39,0,0,0,9.32-6.66c4.21-7.83,3.25-21.77,2.81-26.27Z"/></g></g></g></svg>