<svg xmlns="http://www.w3.org/2000/svg" viewBox="0 0 44.8 75.11"><defs><style>.cls-1{fill:#b6e436;}.cls-2{fill:#7abc39;}</style></defs><title>Recurso 11</title><g id="Capa_2" data-name="Capa 2"><g id="Capa_1-2" data-name="Capa 1"><path id="_Trazado_" data-name="&lt;Trazado&gt;" class="cls-1" d="M12.47,75.09A35.7,35.7,0,0,0,24.3,73.46,26.51,26.51,0,0,0,42,56.48C48.46,38.6,42.1,9.39,39.76,0,31.94,5.7,8.3,24,1.81,41.89A26.55,26.55,0,0,0,4.44,66.26,35.78,35.78,0,0,0,12.47,75.09Z"/><path id="_Trazado_2" data-name="&lt;Trazado&gt;" class="cls-2" d="M12.47,75.09A35.7,35.7,0,0,0,24.3,73.46,26.51,26.51,0,0,0,42,56.48C48.46,38.6,42.1,9.39,39.76,0Z"/></g></g></svg>