<svg id="Layer_1" data-name="Layer 1" xmlns="http://www.w3.org/2000/svg" viewBox="0 0 114.15 109.57"><defs><style>.cls-1{fill:#00b1eb;}.cls-2{fill:#a1daf8;}.cls-3{fill:#65b33a;}.cls-4{fill:#004f9f;}.cls-5,.cls-6{fill:#17174b;}.cls-6{fill-rule:evenodd;}.cls-7{fill:none;stroke:#004f9f;stroke-miterlimit:10;stroke-width:0.4px;}.cls-8{fill:#1d1d1b;}</style></defs><title>ISO_9001</title><path class="cls-1" d="M152.46,94.82a50.71,50.71,0,0,1-28.05,43.93v1.9a52.43,52.43,0,0,0,29.75-45.86Zm-101.25,0-1.7,0a52.41,52.41,0,0,0,28.56,45.26v-1.93A50.69,50.69,0,0,1,51.21,94.83Z" transform="translate(-44.83 -36.3)"/><path class="cls-1" d="M156.48,94.75a54.71,54.71,0,0,1-32.07,48.45v1.86a56.42,56.42,0,0,0,33.77-50.33Zm-109.29,0-1.7,0a56.41,56.41,0,0,0,32.58,49.79v-1.88A54.71,54.71,0,0,1,47.19,94.76Z" transform="translate(-44.83 -36.3)"/><rect class="cls-2" x="21.42" y="39.15" width="71.15" height="11.36"/><rect class="cls-3" x="21.42" y="54.29" width="71.15" height="1.89"/><rect class="cls-4" x="21.42" y="58.07" width="71.15" height="3.78"/><polygon class="cls-5" points="36.49 67.54 36.49 77 38.3 77 38.3 70.17 45.77 77 47.28 77 47.28 67.54 45.46 67.54 45.46 74.37 38 67.54 36.49 67.54"/><polygon class="cls-5" points="92.57 77 92.57 75.33 85.66 75.33 85.66 67.54 83.84 67.54 83.84 77 92.57 77"/><polygon class="cls-5" points="55.12 77 56.51 77 61.7 67.54 59.66 67.54 55.84 74.74 52.02 67.54 49.94 67.54 55.12 77"/><path class="cls-5" d="M118.59,103.83c-1.67,0-3,.23-3.86,1a3.43,3.43,0,0,0-1,2.7v2a3.45,3.45,0,0,0,1,2.7c.84.79,2.19,1,3.86,1h6.11v-5.47H119v1.71h3.92v2.09H118.1A2.91,2.91,0,0,1,116,111a2.13,2.13,0,0,1-.5-1.59V107.7a2.16,2.16,0,0,1,.5-1.6,3,3,0,0,1,2.08-.6h6.6v-1.67Z" transform="translate(-44.83 -36.3)"/><path class="cls-6" d="M68.07,105.5h4.87a2.94,2.94,0,0,1,2.08.6,2.1,2.1,0,0,1,.51,1.62v1.69A2.06,2.06,0,0,1,75,111a2.9,2.9,0,0,1-2.08.61H68.07Zm9.28,2a3.47,3.47,0,0,0-1-2.7c-.85-.79-2.2-1-3.86-1H66.25v9.47h6.21c1.66,0,3-.23,3.86-1a3.48,3.48,0,0,0,1-2.7Z" transform="translate(-44.83 -36.3)"/><rect class="cls-5" x="63.16" y="71.24" width="2.13" height="2.13"/><path class="cls-7" d="M101.83,137.62" transform="translate(-44.83 -36.3)"/><path class="cls-8" d="M53,85.3l-1,1A3.26,3.26,0,0,1,52.3,88c-.24,2.26-2.16,3.21-4.09,3s-3.6-1.55-3.35-3.81a3.42,3.42,0,0,1,4.08-3,4,4,0,0,1,2.71,1.38l.85-.86Zm-2.87,1.8.86-.86a3.21,3.21,0,0,0-2.19-1.06c-1.43-.16-3,.41-3.19,2.14s1.23,2.62,2.66,2.77,3-.41,3.19-2.14a2.39,2.39,0,0,0-.09-1l-.71.72Z" transform="translate(-44.83 -36.3)"/><path class="cls-8" d="M51.61,77.57a2.51,2.51,0,0,1,2,3.4c-.46,1.79-1.55,2.63-3.39,2.16L45.77,82l.23-.93,4.42,1.13a1.78,1.78,0,0,0,2.38-1.43,1.72,1.72,0,0,0-1.43-2.29L47,77.36l.24-.92Z" transform="translate(-44.83 -36.3)"/><path class="cls-8" d="M48.64,72.53l.39-1,7.67.08-.39,1L54,72.53l-1.13,2.8,1.7,1.55-.37.9Zm3.62,2.22.9-2.24-3.53-.14h0Z" transform="translate(-44.83 -36.3)"/><path class="cls-8" d="M50.72,67.79l.46-.83,5.56,3,1.82-3.31.7.38L57,71.22Z" transform="translate(-44.83 -36.3)"/><path class="cls-8" d="M53.73,62.59l.52-.79,6,3.91-.52.79Z" transform="translate(-44.83 -36.3)"/><path class="cls-8" d="M57,59.31l-1.46,1.88-.63-.49,3.5-4.51.63.49-1.46,1.88,5,3.89L62,63.2Z" transform="translate(-44.83 -36.3)"/><path class="cls-8" d="M64.44,56l2.08,2-.67.68-2.08-2-4.94-1,.8-.81,3.92.86-1-3.87.75-.77Z" transform="translate(-44.83 -36.3)"/><path class="cls-8" d="M71.43,47.5a1.56,1.56,0,0,0-2.29-.16c-.66.46-1.14,1.16-.6,1.92s1.51.16,2.6-.29,2.24-.78,3,.36,0,2.6-1,3.35c-1.31.93-2.86,1.07-3.87-.35l.74-.52a1.8,1.8,0,0,0,2.69.2c.7-.49,1.32-1.26.73-2.1s-1.6-.28-2.68.17-2.2.85-3-.22-.15-2.45.91-3.2,2.49-.92,3.45.32Z" transform="translate(-44.83 -36.3)"/><path class="cls-8" d="M77.35,46.5l1.38,2.58-.84.45L76.52,47l-4.43-2.42,1-.53,3.49,2,.24-4,1-.5Z" transform="translate(-44.83 -36.3)"/><path class="cls-8" d="M83.74,41.4a1.56,1.56,0,0,0-2.17-.73c-.75.29-1.39.84-1.06,1.71s1.43.54,2.59.37,2.37-.2,2.87,1.11-.63,2.52-1.85,3c-1.49.58-3,.33-3.65-1.3l.84-.32a1.81,1.81,0,0,0,2.55.87c.81-.31,1.6-.9,1.23-1.86s-1.47-.67-2.63-.5-2.34.28-2.81-.94.46-2.42,1.67-2.88c1.36-.52,2.65-.27,3.26,1.17Z" transform="translate(-44.83 -36.3)"/><path class="cls-8" d="M87.61,38.9l-2.31.58-.19-.78,5.54-1.39.19.78-2.31.58,1.55,6.15-.92.23Z" transform="translate(-44.83 -36.3)"/><path class="cls-8" d="M92,37.09l4.89-.65.11.79-4,.53.3,2.25,3.68-.49.1.79-3.68.49.33,2.45,4-.53.11.8L93,44.17Z" transform="translate(-44.83 -36.3)"/><path class="cls-8" d="M98.81,36.31h1.3l2.26,6,2.25-6h1.3v7.13H105V37.5h0l-2.22,5.94H102l-2.24-5.93h0v5.93h-.9Z" transform="translate(-44.83 -36.3)"/><path class="cls-8" d="M115.85,40.21a1.89,1.89,0,0,0-1.63-1.92c-1.66-.36-2.66.85-3,2.31S111.3,43.67,113,44a2,2,0,0,0,2.45-1.57l.93.2a2.9,2.9,0,0,1-3.63,2.13c-2.17-.48-2.87-2.31-2.42-4.34s2-3.42,4.11-3a2.74,2.74,0,0,1,2.37,2.9Z" transform="translate(-44.83 -36.3)"/><path class="cls-8" d="M119.11,38.92l4.64,1.67-.28.76L119.73,40,119,42.13l3.49,1.26-.27.75-3.49-1.26-.84,2.32,3.77,1.36-.27.75-4.67-1.68Z" transform="translate(-44.83 -36.3)"/><path class="cls-8" d="M125.44,41.32l3,1.53a1.89,1.89,0,0,1,1.09,2.65,1.71,1.71,0,0,1-1.93,1v0c.67.52.54,1.14.29,1.79a3.66,3.66,0,0,0-.53,2l-.94-.48c-.11-.38.37-1,.57-1.69s.34-1.27-.48-1.69l-2.06-1.05L123,48.11l-.85-.43Zm1.11,4.26c.8.41,1.58.55,2-.38a1.12,1.12,0,0,0-.57-1.66l-2.11-1.08-1.13,2.22Z" transform="translate(-44.83 -36.3)"/><path class="cls-8" d="M132.76,46.34l-2-1.32.45-.67L136,47.53l-.45.67-2-1.33L130,52.14l-.79-.53Z" transform="translate(-44.83 -36.3)"/><path class="cls-8" d="M136.93,48.35l.74.59-4.43,5.59-.75-.59Z" transform="translate(-44.83 -36.3)"/><path class="cls-8" d="M139.27,50.22l3.42,3.2-.54.59-2.74-2.55-1.54,1.65,2.39,2.24-.54.59-2.4-2.24-2.23,2.39-.69-.65Z" transform="translate(-44.83 -36.3)"/><path class="cls-8" d="M143.71,54.57l.64.7-5.27,4.81-.64-.7Z" transform="translate(-44.83 -36.3)"/><path class="cls-8" d="M147.07,62.11a1.87,1.87,0,0,0,0-2.51c-1-1.35-2.57-1.09-3.76-.19s-1.95,2.37-.93,3.74a2,2,0,0,0,2.89.4l.57.76a2.9,2.9,0,0,1-4.14-.75c-1.34-1.77-.68-3.62,1-4.87s3.71-1.32,5,.44a2.73,2.73,0,0,1-.08,3.74Z" transform="translate(-44.83 -36.3)"/><path class="cls-8" d="M151.36,64.94l.52.92L147,71.79l-.52-.91L148,69.14l-1.48-2.63-2.27.36-.48-.85Zm-4,1.44,1.19,2.11,2.32-2.67v0Z" transform="translate(-44.83 -36.3)"/><path class="cls-8" d="M153.24,70.39l-1-2.18.73-.32,2.29,5.23-.73.32-1-2.18-5.8,2.54-.38-.86Z" transform="translate(-44.83 -36.3)"/><path class="cls-8" d="M155.7,74.35l.31.89-6.76,2.34-.31-.9Z" transform="translate(-44.83 -36.3)"/><path class="cls-8" d="M157.58,80.17c.53,2.21-1,3.74-2.85,4.19s-3.9-.26-4.43-2.47,1-3.74,2.86-4.19A3.42,3.42,0,0,1,157.58,80.17Zm-6.5,1.54c.4,1.69,2,2.05,3.43,1.72s2.7-1.39,2.3-3.08-2-2.06-3.44-1.73S150.68,80,151.08,81.71Z" transform="translate(-44.83 -36.3)"/><path class="cls-8" d="M158.48,85.44l.08,1-5.43,4.26v0l5.77-.51.08.89-7.12.63-.09-1,5.38-4.23v0l-5.71.51-.08-.9Z" transform="translate(-44.83 -36.3)"/><path class="cls-8" d="M81.8,138.56h1v7.14h-1Z" transform="translate(-44.83 -36.3)"/><path class="cls-8" d="M88.48,140.65a1.56,1.56,0,0,0-1.77-1.46c-.8,0-1.6.29-1.6,1.22s1.14,1,2.29,1.27,2.28.66,2.28,2.06-1.49,2.13-2.79,2.13c-1.6,0-3-.78-3-2.52h.9c0,1.2,1,1.72,2.08,1.72.86,0,1.81-.27,1.81-1.3s-1.14-1.15-2.28-1.4-2.29-.58-2.29-1.89,1.29-2.09,2.59-2.09c1.46,0,2.57.69,2.63,2.26Z" transform="translate(-44.83 -36.3)"/><path class="cls-8" d="M93.85,138.39c2.27,0,3.42,1.8,3.42,3.74s-1.15,3.74-3.42,3.74-3.42-1.8-3.42-3.74S91.58,138.39,93.85,138.39Zm0,6.68c1.74,0,2.47-1.5,2.47-2.94s-.73-2.94-2.47-2.94-2.47,1.5-2.47,2.94S92.11,145.07,93.85,145.07Z" transform="translate(-44.83 -36.3)"/><path class="cls-8" d="M101.77,144a1.2,1.2,0,0,0,1.3,1.08c1,0,1.55-.91,1.6-2.74l0,0a1.86,1.86,0,0,1-1.64,1,2.14,2.14,0,0,1-2.24-2.37,2.22,2.22,0,0,1,2.33-2.31c1.32,0,2.43.71,2.43,3.39,0,2.45-.74,3.82-2.46,3.82a1.94,1.94,0,0,1-2.15-1.83Zm1.29-4.63c-1,0-1.39.81-1.39,1.68a1.43,1.43,0,1,0,2.85-.06A1.47,1.47,0,0,0,103.06,139.36Z" transform="translate(-44.83 -36.3)"/><path class="cls-8" d="M108.77,138.61c2.22,0,2.36,2,2.36,3.61s-.14,3.6-2.36,3.6-2.36-2-2.36-3.6S106.55,138.61,108.77,138.61Zm0,6.46c1.45,0,1.46-1.8,1.46-2.86s0-2.85-1.46-2.85-1.46,1.8-1.46,2.85S107.32,145.07,108.77,145.07Z" transform="translate(-44.83 -36.3)"/><path class="cls-8" d="M114.33,138.61c2.22,0,2.36,2,2.36,3.61s-.14,3.6-2.36,3.6-2.36-2-2.36-3.6S112.11,138.61,114.33,138.61Zm0,6.46c1.45,0,1.46-1.8,1.46-2.86s0-2.85-1.46-2.85-1.46,1.8-1.46,2.85S112.88,145.07,114.33,145.07Z" transform="translate(-44.83 -36.3)"/><path class="cls-8" d="M120.67,145.7h-.85v-5.08H118v-.68c1,0,1.85-.26,2-1.33h.65Z" transform="translate(-44.83 -36.3)"/></svg>