<svg id="Layer_1" data-name="Layer 1" xmlns="http://www.w3.org/2000/svg" viewBox="0 0 114.37 108.72"><defs><style>.cls-1{fill:#00b1eb;}.cls-2{fill:#a1daf8;}.cls-3{fill:#65b33a;}.cls-4{fill:#004f9f;}.cls-5,.cls-6{fill:#17174b;}.cls-6{fill-rule:evenodd;}.cls-7{fill:none;stroke:#004f9f;stroke-miterlimit:10;stroke-width:0.4px;}.cls-8{fill:#1d1d1b;}</style></defs><title>ISO_14001</title><path class="cls-1" d="M145.44,96.56a50.94,50.94,0,0,1-21,23.24v1.94a52.53,52.53,0,0,0,22.6-24.63ZM53,96.54l-1.62.55a52.68,52.68,0,0,0,21.48,24v-2A50.81,50.81,0,0,1,53,96.54Z" transform="translate(-42 -18.63)"/><path class="cls-1" d="M149.28,97.87a55,55,0,0,1-24.82,26.51v1.91a56.75,56.75,0,0,0,26.42-27.87Zm-100.12,0-1.62.56a56.66,56.66,0,0,0,25.3,27.3v-1.93A54.93,54.93,0,0,1,49.16,97.85Z" transform="translate(-42 -18.63)"/><rect class="cls-2" x="21.64" y="39.3" width="71.15" height="11.36"/><rect class="cls-3" x="21.64" y="54.44" width="71.15" height="1.89"/><rect class="cls-4" x="21.64" y="58.22" width="71.15" height="3.78"/><polygon class="cls-5" points="36.7 67.69 36.7 77.15 38.51 77.15 38.51 70.32 45.98 77.15 47.49 77.15 47.49 67.69 45.67 67.69 45.67 74.52 38.22 67.69 36.7 67.69"/><polygon class="cls-5" points="92.78 77.15 92.78 75.48 85.87 75.48 85.87 67.69 84.05 67.69 84.05 77.15 92.78 77.15"/><polygon class="cls-5" points="55.33 77.15 56.72 77.15 61.91 67.69 59.87 67.69 56.05 74.89 52.23 67.69 50.15 67.69 55.33 77.15"/><path class="cls-5" d="M116,86.32c-1.67,0-3,.22-3.86,1a3.48,3.48,0,0,0-1,2.7v2a3.5,3.5,0,0,0,1,2.71c.84.78,2.19,1,3.86,1h6.12V90.32h-5.74V92h3.92v2.09h-4.78a2.88,2.88,0,0,1-2.08-.6,2.12,2.12,0,0,1-.51-1.6V90.19a2.11,2.11,0,0,1,.51-1.6,2.88,2.88,0,0,1,2.08-.6h6.6V86.32Z" transform="translate(-42 -18.63)"/><path class="cls-6" d="M65.45,88h4.88a2.91,2.91,0,0,1,2.08.6,2.11,2.11,0,0,1,.51,1.62v1.68a2.14,2.14,0,0,1-.51,1.62,2.91,2.91,0,0,1-2.08.6H65.45Zm9.28,2a3.48,3.48,0,0,0-1-2.7c-.84-.79-2.19-1-3.86-1h-6.2v9.46h6.2c1.67,0,3-.23,3.86-1a3.5,3.5,0,0,0,1-2.71Z" transform="translate(-42 -18.63)"/><rect class="cls-5" x="63.37" y="71.38" width="2.13" height="2.13"/><path class="cls-7" d="M99.21,120.1" transform="translate(-42 -18.63)"/><path class="cls-8" d="M45.32,95l-1.46-4.71.77-.24,1.17,3.8L48,93.22l-1.1-3.54.77-.24L48.74,93l2.36-.73-1.19-3.83.76-.23,1.47,4.73Z" transform="translate(-42 -18.63)"/><path class="cls-8" d="M43.41,88.51l-.18-1,5.07-4.7v0l-5.7,1-.16-.88,7-1.22.18,1-5,4.66v0l5.65-1,.15.88Z" transform="translate(-42 -18.63)"/><path class="cls-8" d="M49.25,77.57l0,1.08-7,2.83-.05-1,6.1-2.31v0l-6.27-1.79,0-1Z" transform="translate(-42 -18.63)"/><path class="cls-8" d="M42.11,74.1l0-.95,7.13.28,0,.95Z" transform="translate(-42 -18.63)"/><path class="cls-8" d="M42.23,71.06l.43-3.33c.17-1.33,1-2.06,2.14-1.91a1.7,1.7,0,0,1,1.63,1.46h0c.27-.8.89-.89,1.6-.87a3.62,3.62,0,0,0,2-.16l-.14,1c-.32.23-1.07,0-1.78,0s-1.31.1-1.43,1l-.31,2.3,3,.39-.12.95Zm3.64-2.48c.11-.88,0-1.67-1-1.8a1.13,1.13,0,0,0-1.37,1.1l-.31,2.34,2.47.32Z" transform="translate(-42 -18.63)"/><path class="cls-8" d="M44,60.59a3.43,3.43,0,0,1,4.52-2.3,3.43,3.43,0,1,1-1.82,6.59C44.81,64.36,43.38,62.77,44,60.59Zm6.45,1.78c.46-1.68-.79-2.78-2.18-3.17s-3-.08-3.49,1.6.78,2.78,2.17,3.17S50,64.05,50.43,62.37Z" transform="translate(-42 -18.63)"/><path class="cls-8" d="M45.76,55.52l.4-.93L53,53.48v0l-5.3-2.33.36-.82,6.53,2.87-.41,1-6.75,1.1v0l5.24,2.31-.36.82Z" transform="translate(-42 -18.63)"/><path class="cls-8" d="M49.13,48.18l.7-1.1,6.27,1.34-3.84-5.13.7-1.1L59,46l-.48.75-5-3.19h0l3.8,5.08-.44.68-6.2-1.32v0l5,3.2-.49.76Z" transform="translate(-42 -18.63)"/><path class="cls-8" d="M54.42,40.37l3.22-3.74.6.52-2.59,3,1.72,1.48,2.42-2.81.61.52L58,42.17l1.88,1.62,2.62-3,.6.52L59.83,45Z" transform="translate(-42 -18.63)"/><path class="cls-8" d="M58.94,35.29l.75-.68,6.67,1.8h0l-3.87-4.32.67-.6L68,36.8l-.77.69-6.61-1.77h0L64.38,40l-.67.6Z" transform="translate(-42 -18.63)"/><path class="cls-8" d="M66.72,29.89l-2,1.36-.45-.66L69,27.34l.46.65-2,1.36,3.62,5.21-.78.54Z" transform="translate(-42 -18.63)"/><path class="cls-8" d="M71.07,26.18l.91-.51,5.91,4.89-.92.51-1.72-1.5L72.6,31,73,33.31l-.86.47Zm1.41,4L74.6,29l-2.66-2.34h0Z" transform="translate(-42 -18.63)"/><path class="cls-8" d="M75.64,23.82l.88-.36,2.41,5.86,3.49-1.43.31.74-4.38,1.79Z" transform="translate(-42 -18.63)"/><path class="cls-8" d="M88.83,21.82a1.56,1.56,0,0,0-2-1c-.78.17-1.5.63-1.29,1.54s1.33.74,2.51.74,2.37.15,2.68,1.51-1,2.41-2.26,2.69c-1.57.35-3.06-.12-3.44-1.82l.88-.19a1.81,1.81,0,0,0,2.41,1.22c.84-.18,1.71-.65,1.48-1.66s-1.36-.87-2.53-.87-2.36-.07-2.65-1.35.81-2.32,2.08-2.6,2.66.11,3.06,1.63Z" transform="translate(-42 -18.63)"/><path class="cls-8" d="M94.67,23.19l.27,2.91-.94.09-.28-2.91-3.14-3.94,1.12-.1,2.45,3.18,1.76-3.58L97,18.73Z" transform="translate(-42 -18.63)"/><path class="cls-8" d="M102.54,21a1.57,1.57,0,0,0-1.73-1.52c-.8,0-1.61.24-1.64,1.17s1.11,1,2.25,1.34,2.26.73,2.22,2.13-1.55,2.08-2.85,2c-1.6-.05-2.93-.87-2.87-2.6l.89,0c0,1.2,1,1.75,2,1.79.86,0,1.82-.22,1.85-1.25s-1.1-1.18-2.24-1.47-2.27-.65-2.23-2,1.36-2.05,2.66-2c1.45.05,2.54.77,2.56,2.34Z" transform="translate(-42 -18.63)"/><path class="cls-8" d="M107.06,20.13l-2.35-.35.11-.79,5.65.83-.12.79L108,20.27l-.93,6.26-.94-.13Z" transform="translate(-42 -18.63)"/><path class="cls-8" d="M111.85,20.14l4.76,1.28-.21.77-3.84-1L112,23.35l3.58,1-.21.78-3.58-1-.64,2.39,3.87,1-.21.77L110,27Z" transform="translate(-42 -18.63)"/><path class="cls-8" d="M118.5,22l1.19.52-.3,6.4,4.44-4.62,1.2.51-2.82,6.56-.83-.35,2.35-5.46h0l-4.4,4.58-.74-.32.3-6.34h0l-2.35,5.46-.82-.36Z" transform="translate(-42 -18.63)"/><path class="cls-8" d="M132.63,32.19a1.87,1.87,0,0,0-.76-2.39c-1.39-1-2.79-.25-3.64,1s-1.13,2.86.26,3.84a2,2,0,0,0,2.87-.5l.78.55a2.91,2.91,0,0,1-4.17.56c-1.82-1.28-1.76-3.24-.56-4.94s3.13-2.4,4.93-1.13a2.73,2.73,0,0,1,1.07,3.59Z" transform="translate(-42 -18.63)"/><path class="cls-8" d="M136.14,32.26l3.63,3.33-.54.59-2.93-2.69-1.53,1.67,2.73,2.51-.54.59-2.73-2.51-1.67,1.82,2.95,2.72-.54.58-3.66-3.35Z" transform="translate(-42 -18.63)"/><path class="cls-8" d="M141,36.92l2.17,2.56a1.89,1.89,0,0,1,0,2.86,1.72,1.72,0,0,1-2.18.22v0c.41.73.06,1.26-.43,1.76s-1.11,1-1.23,1.6l-.68-.81c0-.39.73-.78,1.17-1.34s.81-1,.21-1.74l-1.5-1.76-2.32,2-.62-.72Zm-.61,4.36c.58.67,1.24,1.1,2,.43a1.12,1.12,0,0,0,.11-1.75L141,38.16l-1.89,1.61Z" transform="translate(-42 -18.63)"/><path class="cls-8" d="M145.9,44.37l-1.32-2,.66-.45,3.17,4.76-.67.44-1.32-2-5.28,3.51-.53-.79Z" transform="translate(-42 -18.63)"/><path class="cls-8" d="M149,47.82l.46.83-6.24,3.46-.46-.83Z" transform="translate(-42 -18.63)"/><path class="cls-8" d="M150.41,50.44l1.94,4.27-.73.33-1.55-3.4-2.07.93,1.36,3-.73.33-1.35-3-3,1.35-.4-.87Z" transform="translate(-42 -18.63)"/><path class="cls-8" d="M152.84,56.15l.32.89-6.72,2.42-.33-.89Z" transform="translate(-42 -18.63)"/><path class="cls-8" d="M153,64.43a1.88,1.88,0,0,0,1-2.31c-.42-1.65-2-2-3.4-1.63s-2.72,1.44-2.3,3.09a2,2,0,0,0,2.51,1.49l.23.92a2.89,2.89,0,0,1-3.53-2.29c-.55-2.15.77-3.6,2.79-4.11s3.93.21,4.47,2.34a2.72,2.72,0,0,1-1.52,3.42Z" transform="translate(-42 -18.63)"/><path class="cls-8" d="M155.89,68.69l.12,1-6.76,3.6-.13-1,2-1-.35-3-2.23-.54-.11-1Zm-4.24-.22.28,2.4,3.17-1.56v0Z" transform="translate(-42 -18.63)"/><path class="cls-8" d="M155.52,74.45l0-2.38h.8l.1,5.71h-.8l0-2.38-6.34.11,0-1Z" transform="translate(-42 -18.63)"/><path class="cls-8" d="M156.26,79l-.06,1-7.13-.44.06-1Z" transform="translate(-42 -18.63)"/><path class="cls-8" d="M155.78,85.09c-.36,2.25-2.32,3.1-4.24,2.79s-3.51-1.73-3.15-4,2.32-3.09,4.24-2.79S156.14,82.85,155.78,85.09ZM149.18,84c-.27,1.72,1.09,2.68,2.51,2.91s3-.25,3.3-2-1.09-2.68-2.51-2.91S149.46,82.32,149.18,84Z" transform="translate(-42 -18.63)"/><path class="cls-8" d="M154.57,90.33l-.3,1-6.65,1.86v0l5.52,1.73-.27.86-6.81-2.14.31-1L153,90.79v0l-5.47-1.72.27-.86Z" transform="translate(-42 -18.63)"/><path class="cls-8" d="M76.41,120.05h1v7.13h-1Z" transform="translate(-42 -18.63)"/><path class="cls-8" d="M83.08,122.14a1.56,1.56,0,0,0-1.76-1.46c-.8,0-1.6.29-1.6,1.22s1.14,1,2.28,1.27,2.28.66,2.28,2-1.49,2.13-2.78,2.13c-1.6,0-3-.78-3-2.51h.9c0,1.19,1,1.71,2.08,1.71.85,0,1.8-.27,1.8-1.3s-1.14-1.14-2.28-1.39-2.28-.58-2.28-1.89,1.29-2.09,2.59-2.09c1.45,0,2.56.69,2.62,2.26Z" transform="translate(-42 -18.63)"/><path class="cls-8" d="M88.45,119.88c2.27,0,3.42,1.8,3.42,3.74a3.43,3.43,0,1,1-6.83,0C85,121.68,86.19,119.88,88.45,119.88Zm0,6.67c1.74,0,2.47-1.5,2.47-2.93s-.73-2.94-2.47-2.94S86,122.18,86,123.62,86.71,126.55,88.45,126.55Z" transform="translate(-42 -18.63)"/><path class="cls-8" d="M98.59,127.18h-.84v-5.07H95.91v-.68c1,0,1.85-.26,2-1.33h.64Z" transform="translate(-42 -18.63)"/><path class="cls-8" d="M104.78,124.78h1v.74h-1v1.66H104v-1.66h-3.1v-.81l3.22-4.61h.68Zm-.8,0v-3.47h0l-2.35,3.47Z" transform="translate(-42 -18.63)"/><path class="cls-8" d="M108.93,120.1c2.22,0,2.36,2,2.36,3.61s-.14,3.59-2.36,3.59-2.35-2-2.35-3.59S106.72,120.1,108.93,120.1Zm0,6.45c1.45,0,1.46-1.8,1.46-2.85s0-2.85-1.46-2.85-1.45,1.8-1.45,2.85S107.49,126.55,108.93,126.55Z" transform="translate(-42 -18.63)"/><path class="cls-8" d="M114.5,120.1c2.21,0,2.35,2,2.35,3.61s-.14,3.59-2.35,3.59-2.36-2-2.36-3.59S112.28,120.1,114.5,120.1Zm0,6.45c1.44,0,1.45-1.8,1.45-2.85s0-2.85-1.45-2.85-1.46,1.8-1.46,2.85S113.05,126.55,114.5,126.55Z" transform="translate(-42 -18.63)"/><path class="cls-8" d="M120.83,127.18H120v-5.07h-1.84v-.68c1,0,1.85-.26,2-1.33h.65Z" transform="translate(-42 -18.63)"/></svg>