<svg xmlns="http://www.w3.org/2000/svg" viewBox="0 0 2498.77 351.42"><defs><style>.cls-1{fill:#6d6e70;}.cls-2{fill:#a4e800;}.cls-3{fill:#6fd227;}.cls-4{fill:#4bc022;}.cls-5{fill:#3bcbff;}.cls-6{fill:#22a4fb;}.cls-7{fill:#1884fa;}</style></defs><title>Recurso 1</title><g id="Capa_2" data-name="Capa 2"><g id="Layer_1" data-name="Layer 1"><polygon class="cls-1" points="577.93 350.27 604.99 350.27 604.99 342.68 585.52 342.68 585.52 322.33 604.99 322.33 604.99 314.74 585.52 314.74 585.52 298.97 604.99 298.97 604.99 291.37 577.93 291.37 577.93 350.27"/><polygon class="cls-1" points="646.93 350.27 654.53 350.27 654.53 322.33 673.99 322.33 673.99 314.74 654.53 314.74 654.53 298.97 673.99 298.97 673.99 291.37 646.93 291.37 646.93 350.27"/><rect class="cls-1" x="715.55" y="291.37" width="7.6" height="58.9"/><path class="cls-1" d="M811.26,337.51a22.54,22.54,0,0,1-16.18,6.31c-13.24,0-22.84-9.67-22.84-23s9.61-23,22.84-23a22.3,22.3,0,0,1,15.89,6l2,2,5.23-5.76-2-1.83a30.67,30.67,0,0,0-21.18-8c-17.73,0-30.6,12.86-30.6,30.6s12.87,30.6,30.6,30.6a30.4,30.4,0,0,0,21.43-8.31l1.88-1.79-5.06-5.85Z"/><rect class="cls-1" x="857.53" y="291.37" width="7.6" height="58.9"/><polygon class="cls-1" points="910.12 350.27 937.19 350.27 937.19 342.68 917.73 342.68 917.73 322.33 937.19 322.33 937.19 314.74 917.73 314.74 917.73 298.97 937.19 298.97 937.19 291.37 910.12 291.37 910.12 350.27"/><polygon class="cls-1" points="1013.03 334.53 985.5 291.37 983 291.37 981.27 291.37 979.13 291.37 979.13 350.27 986.73 350.27 986.73 307.32 1014.26 350.27 1016.6 350.27 1018.49 350.27 1020.62 350.27 1020.62 291.37 1013.03 291.37 1013.03 334.53"/><path class="cls-1" d="M1108.72,337.51a22.53,22.53,0,0,1-16.18,6.32c-13.23,0-22.84-9.67-22.84-23s9.61-23,22.84-23a22.3,22.3,0,0,1,15.89,6l2,2,5.22-5.76-2-1.83a30.67,30.67,0,0,0-21.18-8c-17.72,0-30.6,12.86-30.6,30.6s12.87,30.6,30.6,30.6a30.41,30.41,0,0,0,21.43-8.31l1.88-1.79-5.05-5.85Z"/><rect class="cls-1" x="1155" y="291.37" width="7.61" height="58.9"/><path class="cls-1" d="M1221.91,291.37l-21.12,58.9H1209l7.87-22.22h16.23l7.94,22.22h8.17l-21.12-58.9Zm-2.37,29.09,5.42-15.17,5.39,15.17Z"/><polygon class="cls-1" points="1353.15 314.28 1342.52 291.37 1334.21 291.37 1349.35 323.87 1349.35 350.27 1356.95 350.27 1356.95 323.88 1372.18 291.37 1363.86 291.37 1353.15 314.28"/><path class="cls-1" d="M1484.17,315.83l-3.37-.92c-7.49-2-8.52-5.28-8.52-8.51,0-4.89,3.95-8.57,9.18-8.57,5.54,0,8.72,3.35,8.72,9.18v2.73h7.75V307c0-10-6.62-16.78-16.47-16.78-9.49,0-16.93,7.1-16.93,16.16,0,5.58,2.47,12.86,14.27,15.93l3.59.92c9.88,2.51,10.69,6,10.69,10,0,6.31-4.67,10.55-11.62,10.55s-11.55-4.81-11.55-12.23v-2.73h-7.75v2.73c0,11.67,7.94,19.83,19.3,19.83s19.36-7.64,19.36-18.15C1500.83,322.54,1494.46,318.64,1484.17,315.83Z"/><path class="cls-1" d="M1569.65,333.73c0,5.9-4.31,10-10.48,10s-10.4-4.12-10.4-10V291.37h-7.6v42.36c0,10.08,7.74,17.69,18,17.69,10.47,0,18.08-7.44,18.08-17.69V291.37h-7.6Z"/><path class="cls-1" d="M1639.43,315.83l-3.37-.92c-7.48-2-8.51-5.28-8.51-8.51,0-4.89,3.95-8.57,9.18-8.57,5.55,0,8.73,3.35,8.73,9.18v2.73h7.75V307c0-10-6.63-16.78-16.48-16.78-9.49,0-16.93,7.1-16.93,16.16,0,5.58,2.48,12.87,14.28,15.93l3.59.92c9.89,2.51,10.7,6,10.7,10,0,6.31-4.68,10.55-11.63,10.55s-11.55-4.81-11.55-12.23v-2.73h-7.74v2.73c0,11.67,7.93,19.83,19.29,19.83s19.37-7.64,19.37-18.15C1656.1,322.54,1649.72,318.64,1639.43,315.83Z"/><polygon class="cls-1" points="1690.4 298.97 1703.61 298.97 1703.61 350.27 1711.21 350.27 1711.21 298.97 1724.26 298.97 1724.26 291.37 1690.4 291.37 1690.4 298.97"/><polygon class="cls-1" points="1763.23 350.27 1790.3 350.27 1790.3 342.68 1770.83 342.68 1770.83 322.33 1790.3 322.33 1790.3 314.74 1770.83 314.74 1770.83 298.97 1790.3 298.97 1790.3 291.37 1763.23 291.37 1763.23 350.27"/><polygon class="cls-1" points="1866.13 334.53 1838.6 291.37 1836.1 291.37 1834.37 291.37 1832.23 291.37 1832.23 350.27 1839.83 350.27 1839.83 307.32 1867.36 350.27 1869.7 350.27 1871.59 350.27 1873.73 350.27 1873.73 291.37 1866.13 291.37 1866.13 334.53"/><polygon class="cls-1" points="1912.69 298.97 1925.89 298.97 1925.89 350.27 1933.49 350.27 1933.49 298.97 1946.55 298.97 1946.55 291.37 1912.69 291.37 1912.69 298.97"/><path class="cls-1" d="M2000.38,291.37h-3.91l-21.12,58.9h8.17l7.87-22.22h16.22l7.94,22.22h8.17l-21.13-58.9Zm-6.28,29.09,5.42-15.17,5.38,15.17Z"/><path class="cls-1" d="M2088,319.86a16.17,16.17,0,0,0,4.78-12c0-9.85-6.84-16.48-17-16.48h-13.87v58.9h15.39c10.4,0,17.39-6.74,17.39-16.77C2094.71,327.58,2092.29,322.76,2088,319.86Zm-10.71,22.89h-7.8V324.25h7.8c6.18,0,9.88,3.46,9.88,9.26S2083.41,342.76,2077.32,342.76Zm-1.52-26h-6.27V299h6.27c5.94,0,9.48,3.33,9.48,8.88S2081.74,316.72,2075.8,316.72Z"/><rect class="cls-1" x="2136.11" y="291.37" width="7.6" height="58.9"/><polygon class="cls-1" points="2196.3 291.37 2188.71 291.37 2188.71 350.27 2215.78 350.27 2215.78 342.68 2196.3 342.68 2196.3 291.37"/><rect class="cls-1" x="2254.74" y="291.37" width="7.6" height="58.9"/><path class="cls-1" d="M2312.2,291.37h-4.87v58.9h4.79c18,0,30.59-12.11,30.59-29.45C2342.72,303.76,2329.88,291.37,2312.2,291.37Zm2.73,51.18V299.12c11.93,1.2,20,9.8,20,21.71S2326.86,341.41,2314.93,342.55Z"/><path class="cls-1" d="M2400.83,291.37h-3.91l-21.12,58.9H2384l7.86-22.22h16.22l7.94,22.22h8.18l-21.12-58.9Zm-6.28,29.09,5.43-15.17,5.38,15.17Z"/><path class="cls-1" d="M2467.23,291.37h-4.87v58.9h4.8c18,0,30.6-12.11,30.6-29.45C2497.76,303.76,2484.92,291.37,2467.23,291.37Zm2.74,51.18V299.12c11.93,1.2,20,9.8,20,21.71S2481.9,341.41,2470,342.55Z"/><path id="_Trazado_" data-name="&lt;Trazado&gt;" class="cls-2" d="M508.51,231.63v-19H233.19a119,119,0,0,0-119,119v19H389.53A119,119,0,0,0,508.51,231.63Z"/><g id="_Grupo_" data-name="&lt;Grupo&gt;"><path id="_Trazado_2" data-name="&lt;Trazado&gt;" class="cls-3" d="M462.21,231.63v-19H280.46a119,119,0,0,0-119,119v19H343.24C408.94,350.6,462.21,298.78,462.21,231.63Z"/></g><path id="_Trazado_3" data-name="&lt;Trazado&gt;" class="cls-4" d="M416.1,231.63v-19H318.76c-65.71,0-110.81,53.26-110.81,119v19h97.34C371,350.6,416.1,297.34,416.1,231.63Z"/><path id="_Trazado_4" data-name="&lt;Trazado&gt;" class="cls-5" d="M346.2,2.82H0V26.34A162.58,162.58,0,0,0,162.58,188.92H508.79v-26C508.79,73.15,436,2.82,346.2,2.82Z"/><path id="_Trazado_5" data-name="&lt;Trazado&gt;" class="cls-6" d="M299.59,2.82H46V26.34A162.59,162.59,0,0,0,208.56,188.92H462.18v-26C462.18,73.15,389.39,2.82,299.59,2.82Z"/><path id="_Trazado_6" data-name="&lt;Trazado&gt;" class="cls-7" d="M253.57,2.82H92.43V26.34A162.59,162.59,0,0,0,255,188.92H416.16v-26C416.16,73.15,343.36,2.82,253.57,2.82Z"/><path class="cls-1" d="M698.53,109.64C714.75,99.72,724,82.83,724,62.09c0-53.27-50.92-59-72.82-59H577.79v231.2h73.43c51.93,0,81.71-24.3,81.71-66.69C732.93,139.94,720.6,119.54,698.53,109.64ZM651.22,212.81H600.16V24.52h51.06c33.48,0,50.45,12.64,50.45,37.57,0,24.42-16,37.87-44.93,37.87h-1.38v21.46h1.38c35.41,0,54.13,16,54.13,46.16C710.87,205,678.43,212.81,651.22,212.81Z"/><rect class="cls-1" x="796.43" y="3.07" width="22.38" height="231.2"/><path class="cls-1" d="M969.22,0c-51.44,0-86,32.22-86,80.18V159.6c0,45.76,35.37,77.73,86,77.73,50.46,0,85.71-32,85.71-77.73V80.18C1054.93,32.22,1020.48,0,969.22,0Zm63.64,159.6c0,33.47-25.57,56-63.64,56-38.25,0-63.94-22.49-63.94-56V80.18c0-35.68,25.1-58.73,63.94-58.73,38.65,0,63.64,23,63.64,58.73Z"/><path class="cls-1" d="M1200.14,3.07h-80.8v231.2h80.8c50,0,81.1-31.2,81.1-81.41V85.4C1281.24,34.61,1250.16,3.07,1200.14,3.07Zm58.73,149.79c0,38.46-21,59.65-59,59.65h-58.12v-188h58.12c37.52,0,59,22.19,59,60.87Z"/><path class="cls-1" d="M1368,3.07h-22.37v231.2H1368Z"/><polygon class="cls-1" points="1603.75 3.07 1528.56 200.64 1453.56 3.07 1429.9 3.07 1517.97 234.26 1539.11 234.26 1627.21 3.07 1603.75 3.07"/><polygon class="cls-1" points="1711.44 127.25 1788.73 127.25 1788.73 105.79 1711.44 105.79 1711.44 24.52 1824.6 24.52 1824.6 3.07 1689.07 3.07 1689.07 234.26 1829.19 234.26 1829.19 212.81 1711.44 212.81 1711.44 127.25"/><path class="cls-1" d="M2043.32,72.21c0-42.65-30.25-69.14-79-69.14h-75.28v231.2h22.37V24.52h52.91c36.68,0,56.88,16.94,56.88,47.69,0,30.56-20.2,47.38-56.88,47.38h-9.48V141h.1l71.72,93.21h28l-73.41-94.6C2020.35,134,2043.32,109.41,2043.32,72.21Z"/><path class="cls-1" d="M2190.08,105.65h0c-43-10.22-59.8-23.12-59.8-46,0-28.15,28.12-38.18,54.37-38.18,25,.3,45.75,7.39,63.47,21.68l.44.32,12.2-17.9C2238.59,8.12,2214.8,0,2185.94,0c-48.13,0-78,22.62-78,59,0,45.16,44.13,60.48,77.32,68.07,52.59,12.08,62.21,25.07,62.21,46.31,0,38.06-41.06,42.17-58.72,42.17-24.69,0-43.66-7.42-65.48-25.6l-.52-.39L2109,206.76l.37.34c25.44,21.47,48.41,30.23,79.29,30.23,50,0,81.1-24.49,81.1-63.92C2269.8,132.74,2239.3,117.33,2190.08,105.65Z"/><path class="cls-1" d="M2498.77,234.26,2414.47,8.69a8.31,8.31,0,0,0-7.81-5.62h-8.59a8.16,8.16,0,0,0-7.44,5.41l-84.45,225.78h23.36l21.58-57.54,12-32.6h-.06l39.41-106.54,39.42,106.54h-.11l12,32.59,21.22,57.55Z"/></g></g></svg>