<svg xmlns="http://www.w3.org/2000/svg" viewBox="0 0 1393.92 201.16"><defs><style>.cls-1{fill:#fff;}.cls-2{fill:#b8e636;}.cls-3{fill:#92d03f;}.cls-4{fill:#7bbe39;}.cls-5{fill:#7bc9fc;}.cls-6{fill:#60a1f7;}.cls-7{fill:#4d82f5;}</style></defs><title>Recurso 2</title><g id="Capa_2" data-name="Capa 2"><g id="Capa_1-2" data-name="Capa 1"><path class="cls-1" d="M406.13,59.89c8.86-5.42,13.93-14.64,13.93-26,0-29.1-27.82-32.24-39.78-32.24H340.17V128h40.11c28.37,0,44.64-13.28,44.64-36.43C424.92,76.44,418.18,65.3,406.13,59.89Zm-25.84,56.36H352.39V13.39h27.89c18.28,0,27.56,6.9,27.56,20.52,0,13.34-8.72,20.69-24.54,20.69h-.75V66.33h.75c19.34,0,29.57,8.72,29.57,25.21C412.87,112,395.15,116.25,380.29,116.25Z"/><rect class="cls-1" x="459.6" y="1.68" width="12.22" height="126.29"/><path class="cls-1" d="M554,0c-28.1,0-47,17.6-47,43.8V87.18c0,25,19.32,42.46,47,42.46s46.81-17.46,46.81-42.46V43.8C600.8,17.6,582,0,554,0Zm34.76,87.18c0,18.28-14,30.57-34.76,30.57s-34.93-12.29-34.93-30.57V43.8c0-19.49,13.71-32.08,34.93-32.08s34.76,12.59,34.76,32.08Z"/><path class="cls-1" d="M680.12,1.68H636V128h44.13c27.33,0,44.3-17,44.3-44.47V46.65C724.42,18.91,707.45,1.68,680.12,1.68ZM712.2,83.49c0,21-11.45,32.58-32.25,32.58H648.21V13.39H680c20.49,0,32.25,12.12,32.25,33.25Z"/><path class="cls-1" d="M759.61,5.94V128h12.22V1.68H759.61Z"/><polygon class="cls-1" points="859.51 109.6 818.55 1.68 805.63 1.68 853.73 127.96 865.28 127.96 913.4 1.68 900.59 1.68 859.51 109.6"/><polygon class="cls-1" points="959.41 69.51 1001.63 69.51 1001.63 57.79 959.41 57.79 959.41 13.39 1021.22 13.39 1021.22 1.68 947.19 1.68 947.19 127.96 1023.73 127.96 1023.73 116.25 959.41 116.25 959.41 69.51"/><path class="cls-1" d="M1140.69,39.44c0-23.3-16.53-37.77-43.13-37.77h-41.12V128h12.22V13.39h28.9c20,0,31.07,9.25,31.07,26s-11,25.88-31.07,25.88h-5.18V77h.05L1131.62,128h15.28l-40.1-51.67C1128.15,73.21,1140.69,59.76,1140.69,39.44Z"/><path class="cls-1" d="M1220.86,57.71h0c-23.51-5.58-32.67-12.63-32.67-25.13,0-15.38,15.36-20.86,29.7-20.86,13.65.16,25,4,34.67,11.84l.24.18,6.66-9.77c-12.11-9.52-25.11-14-40.87-14C1192.31,0,1176,12.35,1176,32.24c0,24.67,24.1,33,42.23,37.18,28.73,6.6,34,13.7,34,25.29,0,20.79-22.43,23-32.08,23-13.49,0-23.85-4.05-35.77-14l-.28-.21-7.47,9.38.2.19c13.9,11.73,26.44,16.51,43.31,16.51,27.33,0,44.3-13.38,44.3-34.92C1264.41,72.51,1247.75,64.09,1220.86,57.71Z"/><path class="cls-1" d="M1347.87,4.74a4.54,4.54,0,0,0-4.27-3.07h-4.69a4.45,4.45,0,0,0-4.06,3L1288.72,128h12.76l11.79-31.43,6.58-17.81h0l21.53-58.19,21.53,58.19h-.06l6.57,17.8L1381,128h13Z"/><path class="cls-1" d="M351.36,182.75l-1.83-.5c-3.52-.95-5-2.41-5-5a5.21,5.21,0,0,1,5.43-5.09c3.24,0,5.18,2,5.18,5.43v1h3.31v-1c0-5.25-3.33-8.65-8.48-8.65a8.43,8.43,0,0,0-8.73,8.31c0,2.87,1.28,6.62,7.4,8.2l1.95.5c5.67,1.44,6.13,3.59,6.13,5.87,0,3.69-2.71,6.17-6.75,6.17-3.34,0-6.71-2.19-6.71-7.08v-1H340v1c0,6.07,4.11,10.3,10,10.3s10.05-3.95,10.05-9.39S356.73,184.22,351.36,182.75Z"/><path class="cls-1" d="M403.08,168.89c-9.35,0-16.13,6.79-16.13,16.14s6.79,16.13,16.13,16.13,16.13-6.79,16.13-16.13S412.42,168.89,403.08,168.89Zm0,29A12.45,12.45,0,0,1,390.25,185c0-7.48,5.39-12.92,12.83-12.92s12.83,5.43,12.83,12.92A12.45,12.45,0,0,1,403.08,197.94Z"/><polygon class="cls-1" points="451.6 169.51 448.38 169.51 448.38 200.54 462.15 200.54 462.15 197.32 451.6 197.32 451.6 169.51"/><path class="cls-1" d="M504.54,192a6.11,6.11,0,0,1-12.22,0V169.51H489.1V192a9.33,9.33,0,0,0,18.65,0V169.51h-3.22Z"/><path class="cls-1" d="M561.88,194.39a12.63,12.63,0,0,1-9.08,3.55A12.45,12.45,0,0,1,540,185c0-7.48,5.39-12.92,12.83-12.92a12.57,12.57,0,0,1,8.93,3.39l.76.74,2.23-2.44-.74-.7a16.22,16.22,0,0,0-11.18-4.21c-9.35,0-16.13,6.79-16.13,16.14s6.79,16.13,16.13,16.13a16,16,0,0,0,11.3-4.38l.72-.68-2.16-2.48Z"/><rect class="cls-1" x="592.96" y="169.51" width="3.22" height="31.03"/><path class="cls-1" d="M641.45,168.89c-9.35,0-16.13,6.79-16.13,16.14s6.79,16.13,16.13,16.13,16.13-6.79,16.13-16.13S650.8,168.89,641.45,168.89Zm0,29A12.45,12.45,0,0,1,628.62,185c0-7.48,5.39-12.92,12.83-12.92s12.83,5.43,12.83,12.92A12.45,12.45,0,0,1,641.45,197.94Z"/><polygon class="cls-1" points="705.13 193.99 689.5 169.51 688.15 169.51 687.91 169.13 687.91 169.51 686.75 169.51 686.75 200.54 689.97 200.54 689.97 176.17 705.6 200.54 706.86 200.54 707.19 201.05 707.19 200.54 708.35 200.54 708.35 169.51 705.13 169.51 705.13 193.99"/><polygon class="cls-1" points="739.49 200.54 753.26 200.54 753.26 197.32 742.71 197.32 742.71 185.39 753.26 185.39 753.26 182.17 742.71 182.17 742.71 172.73 753.26 172.73 753.26 169.51 739.49 169.51 739.49 200.54"/><path class="cls-1" d="M791.34,182.75l-1.84-.5c-3.51-.95-4.94-2.41-4.94-5a5.21,5.21,0,0,1,5.43-5.09c3.24,0,5.18,2,5.18,5.43v1h3.3v-1c0-5.25-3.32-8.65-8.48-8.65a8.43,8.43,0,0,0-8.73,8.31c0,2.87,1.28,6.61,7.39,8.2l2,.5c5.66,1.44,6.13,3.59,6.13,5.87,0,3.69-2.71,6.17-6.75,6.17s-6.71-2.85-6.71-7.08v-1H780v1c0,6.07,4.12,10.3,10,10.3,5,0,10.05-3.22,10.05-9.39C800,186.24,796.71,184.22,791.34,182.75Z"/><path class="cls-1" d="M875.23,182.75l-1.84-.5c-3.51-.95-4.94-2.41-4.94-5a5.21,5.21,0,0,1,5.43-5.09c3.24,0,5.18,2,5.18,5.43v1h3.3v-1c0-5.25-3.32-8.65-8.48-8.65a8.43,8.43,0,0,0-8.73,8.31c0,2.87,1.28,6.61,7.39,8.2l2,.5c5.66,1.44,6.13,3.59,6.13,5.87,0,3.69-2.71,6.17-6.75,6.17s-6.71-2.85-6.71-7.08v-1h-3.31v1c0,6.07,4.12,10.3,10,10.3,5,0,10.05-3.22,10.05-9.39C883.93,186.24,880.6,184.22,875.23,182.75Z"/><path class="cls-1" d="M928,192a6.11,6.11,0,0,1-12.22,0V169.51h-3.21V192a9.33,9.33,0,0,0,18.65,0V169.51H928Z"/><path class="cls-1" d="M971.09,182.75l-1.83-.5c-3.52-.95-5-2.41-5-5a5.21,5.21,0,0,1,5.43-5.09c3.24,0,5.18,2,5.18,5.43v1h3.31v-1c0-5.25-3.33-8.65-8.48-8.65A8.43,8.43,0,0,0,961,177.2c0,2.87,1.28,6.62,7.4,8.2l1.95.5c5.67,1.44,6.13,3.59,6.13,5.87,0,3.69-2.71,6.17-6.75,6.17-3.34,0-6.71-2.19-6.71-7.08v-1h-3.3v1c0,6.07,4.11,10.3,10,10.3s10.05-3.95,10.05-9.39S976.46,184.22,971.09,182.75Z"/><polygon class="cls-1" points="1005.14 172.73 1012.29 172.73 1012.29 200.54 1015.51 200.54 1015.51 172.73 1022.59 172.73 1022.59 169.51 1005.14 169.51 1005.14 172.73"/><polygon class="cls-1" points="1050.45 200.54 1064.22 200.54 1064.22 197.32 1053.67 197.32 1053.67 185.39 1064.22 185.39 1064.22 182.17 1053.67 182.17 1053.67 172.73 1064.22 172.73 1064.22 169.51 1050.45 169.51 1050.45 200.54"/><polygon class="cls-1" points="1112.08 193.99 1096.46 169.51 1095.11 169.51 1094.86 169.13 1094.86 169.51 1093.7 169.51 1093.7 200.54 1096.92 200.54 1096.92 176.17 1112.54 200.54 1113.81 200.54 1114.14 201.05 1114.14 200.54 1115.3 200.54 1115.3 169.51 1112.08 169.51 1112.08 193.99"/><polygon class="cls-1" points="1143.17 172.73 1150.34 172.73 1150.34 200.54 1153.56 200.54 1153.56 172.73 1160.63 172.73 1160.63 169.51 1143.17 169.51 1143.17 172.73"/><path class="cls-1" d="M1197,169.51h-1.21l-.14-.39-.14.39h-1.21l-11.13,31h3.47l4.27-12h9.43l4.3,12h3.48l-10.89-30.35Zm-4.93,15.77,3.58-10,3.55,10Z"/><path class="cls-1" d="M1248.71,184.57a8.22,8.22,0,0,0,2.89-6.58c0-5.15-3.44-8.48-8.77-8.48h-7.08v31h7.91c5.37,0,9-3.47,9-8.65A8.08,8.08,0,0,0,1248.71,184.57Zm-5,12.79H1239V186.43h4.69c3.57,0,5.8,2.09,5.8,5.47S1247.24,197.36,1243.66,197.36Zm-.83-14.11H1239V172.73h3.86c3.45,0,5.59,2,5.59,5.26S1246.28,183.25,1242.83,183.25Z"/><polygon class="cls-1" points="1285.05 169.51 1281.83 169.51 1281.83 200.54 1295.6 200.54 1295.6 197.32 1285.05 197.32 1285.05 169.51"/><polygon class="cls-1" points="1323.46 200.54 1337.24 200.54 1337.24 197.32 1326.68 197.32 1326.68 185.39 1337.24 185.39 1337.24 182.17 1326.68 182.17 1326.68 172.73 1337.24 172.73 1337.24 169.51 1323.46 169.51 1323.46 200.54"/><path class="cls-1" d="M1375.31,182.75l-1.84-.5c-3.51-.95-4.94-2.41-4.94-5a5.21,5.21,0,0,1,5.43-5.09c3.24,0,5.18,2,5.18,5.43v1h3.3v-1c0-5.25-3.32-8.65-8.48-8.65a8.43,8.43,0,0,0-8.73,8.31c0,2.87,1.28,6.61,7.39,8.2l2,.5c5.66,1.44,6.13,3.59,6.13,5.87,0,3.69-2.71,6.17-6.75,6.17s-6.71-2.85-6.71-7.08v-1h-3.31v1c0,6.07,4.12,10.3,10,10.3,5,0,10.05-3.22,10.05-9.39C1384,186.24,1380.68,184.22,1375.31,182.75Z"/><path id="_Trazado_" data-name="&lt;Trazado&gt;" class="cls-2" d="M293.16,132.34v-11H133.92A68.82,68.82,0,0,0,65.1,190.16v11H224.34A68.82,68.82,0,0,0,293.16,132.34Z"/><g id="_Grupo_" data-name="&lt;Grupo&gt;"><path id="_Trazado_2" data-name="&lt;Trazado&gt;" class="cls-3" d="M266.74,132.34v-11H158a68.82,68.82,0,0,0-68.82,68.82v11H197.92A68.82,68.82,0,0,0,266.74,132.34Z"/></g><path id="_Trazado_3" data-name="&lt;Trazado&gt;" class="cls-4" d="M242.7,132.34v-11H184.38a68.82,68.82,0,0,0-68.82,68.82v11h58.33A68.82,68.82,0,0,0,242.7,132.34Z"/><path id="_Trazado_4" data-name="&lt;Trazado&gt;" class="cls-5" d="M199.12,0H0V15a94,94,0,0,0,94,94H293.16V94A94,94,0,0,0,199.12,0Z"/><path id="_Trazado_5" data-name="&lt;Trazado&gt;" class="cls-6" d="M173.29,0H24V15a94,94,0,0,0,94,94H267.33V94A94,94,0,0,0,173.29,0Z"/><path id="_Trazado_6" data-name="&lt;Trazado&gt;" class="cls-7" d="M148.66,0H50.46V15a94,94,0,0,0,94,94h98.2V94A94,94,0,0,0,148.66,0Z"/></g></g></svg>