<?xml version="1.0" encoding="utf-8"?>
<!-- Generator: Adobe Illustrator 22.0.1, SVG Export Plug-In . SVG Version: 6.00 Build 0)  -->
<svg version="1.1" id="Capa_1" xmlns="http://www.w3.org/2000/svg" xmlns:xlink="http://www.w3.org/1999/xlink" x="0px" y="0px"
	 viewBox="0 0 2498.8 351.4" style="enable-background:new 0 0 2498.8 351.4;" xml:space="preserve">
<style type="text/css">
	.st0{fill:#A4E800;}
	.st1{fill:#6FD227;}
	.st2{fill:#4BC022;}
	.st3{fill:#3BCBFF;}
	.st4{fill:#22A4FB;}
	.st5{fill:#1884FA;}
	.st6{fill:#FFFFFF;}
</style>
<title>Recurso 2</title>
<path id="_Trazado_" class="st0" d="M508.5,231.6v-19H233.2c-65.7,0-119,53.3-119,119v19h275.3C455.2,350.6,508.5,297.3,508.5,231.6
	z"/>
<g id="_Grupo_">
	<path id="_Trazado_2" class="st1" d="M462.2,231.6v-19H280.5c-65.7,0-119,53.3-119,119v19h181.8
		C408.9,350.6,462.2,298.8,462.2,231.6z"/>
</g>
<path id="_Trazado_3" class="st2" d="M416.1,231.6v-19h-97.3c-65.7,0-110.8,53.3-110.8,119v19h97.3
	C371,350.6,416.1,297.3,416.1,231.6z"/>
<path id="_Trazado_4" class="st3" d="M346.2,2.8H0v23.5c0,89.8,72.8,162.6,162.6,162.6h346.2v-26C508.8,73.2,436,2.8,346.2,2.8z"/>
<path id="_Trazado_5" class="st4" d="M299.6,2.8H46v23.5c0,89.8,72.8,162.6,162.6,162.6h253.6v-26C462.2,73.2,389.4,2.8,299.6,2.8z"
	/>
<path id="_Trazado_6" class="st5" d="M253.6,2.8H92.4v23.5c0,89.8,72.8,162.6,162.6,162.6h161.2v-26C416.2,73.2,343.4,2.8,253.6,2.8
	z"/>
<g>
	<path class="st6" d="M698.5,166.7c16.2-9.9,25.5-26.8,25.5-47.6c0-53.3-50.9-59-72.8-59h-73.4v231.2h73.4
		c51.9,0,81.7-24.3,81.7-66.7C732.9,197,720.6,176.6,698.5,166.7z M651.2,269.9h-51.1V81.6h51.1c33.5,0,50.5,12.6,50.5,37.6
		c0,24.4-16,37.9-44.9,37.9h-1.4v21.5h1.4c35.4,0,54.1,16,54.1,46.2C710.9,262,678.4,269.9,651.2,269.9z"/>
	<rect x="796.4" y="60.1" class="st6" width="22.4" height="231.2"/>
	<path class="st6" d="M969.2,57c-51.4,0-86,32.2-86,80.2v79.4c0,45.8,35.4,77.7,86,77.7c50.5,0,85.7-32,85.7-77.7v-79.4
		C1054.9,89.3,1020.5,57,969.2,57z M1032.9,216.6c0,33.5-25.6,56-63.6,56c-38.2,0-63.9-22.5-63.9-56v-79.4
		c0-35.7,25.1-58.7,63.9-58.7c38.7,0,63.6,23,63.6,58.7V216.6z"/>
	<path class="st6" d="M1200.1,60.1h-80.8v231.2h80.8c50,0,81.1-31.2,81.1-81.4v-67.5C1281.2,91.7,1250.2,60.1,1200.1,60.1z
		 M1258.9,209.9c0,38.5-21,59.6-59,59.6h-58.1v-188h58.1c37.5,0,59,22.2,59,60.9V209.9z"/>
	<path class="st6" d="M1368,60.1h-22.4v231.2h22.4V60.1z"/>
	<polygon class="st6" points="1603.8,60.1 1528.6,257.7 1453.6,60.1 1429.9,60.1 1518,291.3 1539.1,291.3 1627.2,60.1 	"/>
	<polygon class="st6" points="1711.4,184.3 1788.7,184.3 1788.7,162.8 1711.4,162.8 1711.4,81.6 1824.6,81.6 1824.6,60.1 
		1689.1,60.1 1689.1,291.3 1829.2,291.3 1829.2,269.9 1711.4,269.9 	"/>
	<path class="st6" d="M2043.3,129.3c0-42.7-30.2-69.1-79-69.1H1889v231.2h22.4V81.6h52.9c36.7,0,56.9,16.9,56.9,47.7
		c0,30.6-20.2,47.4-56.9,47.4h-9.5V198h0.1l71.7,93.2h28l-73.4-94.6C2020.3,191,2043.3,166.5,2043.3,129.3z"/>
	<path class="st6" d="M2190.1,162.7L2190.1,162.7c-43-10.2-59.8-23.1-59.8-46c0-28.2,28.1-38.2,54.4-38.2c25,0.3,45.8,7.4,63.5,21.7
		l0.4,0.3l12.2-17.9c-22.2-17.4-46-25.6-74.8-25.6c-48.1,0-78,22.6-78,59c0,45.2,44.1,60.5,77.3,68.1c52.6,12.1,62.2,25.1,62.2,46.3
		c0,38.1-41.1,42.2-58.7,42.2c-24.7,0-43.7-7.4-65.5-25.6l-0.5-0.4l-13.8,17.2l0.4,0.3c25.4,21.5,48.4,30.2,79.3,30.2
		c50,0,81.1-24.5,81.1-63.9C2269.8,189.8,2239.3,174.4,2190.1,162.7z"/>
	<path class="st6" d="M2498.8,291.3l-84.3-225.6c-1.1-3.3-4.3-5.6-7.8-5.6h-8.6c-3.4,0.1-6.3,2.2-7.4,5.4l-84.4,225.8h23.4
		l21.6-57.5l12-32.6h-0.1l39.4-106.5l39.4,106.5h-0.1l12,32.6l21.2,57.6H2498.8z"/>
</g>
</svg>
