<?xml version="1.0" encoding="utf-8"?>
<!-- Generator: Adobe Illustrator 22.0.1, SVG Export Plug-In . SVG Version: 6.00 Build 0)  -->
<svg version="1.1" id="Capa_1" xmlns="http://www.w3.org/2000/svg" xmlns:xlink="http://www.w3.org/1999/xlink" x="0px" y="0px"
	 viewBox="0 0 2498.8 351.4" style="enable-background:new 0 0 2498.8 351.4;" xml:space="preserve">
<style type="text/css">
	.st0{fill:#A4E800;}
	.st1{fill:#6FD227;}
	.st2{fill:#4BC022;}
	.st3{fill:#3BCBFF;}
	.st4{fill:#22A4FB;}
	.st5{fill:#1884FA;}
	.st6{fill:#6D6E70;}
</style>
<title>Recurso 1</title>
<path id="_Trazado_" class="st0" d="M508.5,232l0-19l-275.3,0.1c-65.7,0-119,53.3-118.9,119.1l0,19l275.3-0.1
	C455.3,351,508.6,297.7,508.5,232z"/>
<path id="_Trazado_2" class="st1" d="M462.2,232l0-19l-181.7,0.1c-65.7,0-119,53.3-118.9,119.1l0,19l181.8-0.1
	C409,351,462.3,299.1,462.2,232z"/>
<path id="_Trazado_3" class="st2" d="M416.1,232l0-19l-97.3,0c-65.7,0-110.8,53.3-110.8,119l0,19l97.3,0
	C371.1,351,416.2,297.7,416.1,232z"/>
<path id="_Trazado_4" class="st3" d="M346.1,3.2L-0.1,3.4l0,23.5c0,89.8,72.9,162.5,162.7,162.5l346.2-0.2l0-26
	C508.7,73.5,435.9,3.2,346.1,3.2z"/>
<path id="_Trazado_5" class="st4" d="M299.5,3.2L45.9,3.4l0,23.5c0,89.8,72.9,162.5,162.6,162.5l253.6-0.1l0-26
	C462.1,73.5,389.3,3.2,299.5,3.2z"/>
<path id="_Trazado_6" class="st5" d="M253.5,3.3L92.4,3.3l0,23.5c0,89.8,72.9,162.5,162.6,162.5l161.2-0.1l0-26
	C416.1,73.5,343.3,3.2,253.5,3.3z"/>
<g>
	<path class="st6" d="M698.5,167.1c16.2-9.9,25.5-26.8,25.4-47.6c0-53.3-50.9-59-72.8-59l-73.4,0l0.1,231.2l73.4,0
		c51.9,0,81.7-24.3,81.7-66.7C732.9,197.4,720.6,177,698.5,167.1z M651.2,270.3l-51.1,0L600.1,82l51.1,0c33.5,0,50.5,12.6,50.5,37.5
		c0,24.4-16,37.9-44.9,37.9l-1.4,0l0,21.5l1.4,0c35.4,0,54.1,16,54.2,46.1C710.9,262.4,678.4,270.3,651.2,270.3z"/>
	<rect x="796.4" y="60.5" class="st6" width="22.4" height="231.2"/>
	<path class="st6" d="M969.1,57.3c-51.4,0-86,32.3-86,80.2l0,79.4c0,45.8,35.4,77.7,86,77.7c50.5,0,85.7-32,85.7-77.8l0-79.4
		C1054.9,89.5,1020.4,57.3,969.1,57.3z M1032.9,216.9c0,33.5-25.5,56-63.6,56c-38.2,0-64-22.5-64-56l0-79.4
		c0-35.7,25.1-58.7,63.9-58.8c38.7,0,63.7,23,63.7,58.7L1032.9,216.9z"/>
	<path class="st6" d="M1200.1,60.3l-80.8,0l0.1,231.2l80.8,0c50,0,81.1-31.2,81.1-81.4l0-67.5C1281.2,91.8,1250.1,60.3,1200.1,60.3z
		 M1258.9,210c0,38.5-21,59.7-59,59.7l-58.1,0l-0.1-188l58.1,0c37.5,0,59,22.2,59,60.8L1258.9,210z"/>
	<path class="st6" d="M1367.9,60.2l-22.4,0l0.1,231.2l22.4,0L1367.9,60.2z"/>
	<polygon class="st6" points="1603.7,60.1 1528.6,257.7 1453.5,60.2 1429.8,60.2 1518,291.3 1539.1,291.3 1627.1,60.1 	"/>
	<polygon class="st6" points="1711.4,184.2 1788.7,184.2 1788.7,162.7 1711.4,162.8 1711.4,81.5 1824.5,81.5 1824.5,60 1689,60.1 
		1689.1,291.3 1829.2,291.2 1829.2,269.7 1711.5,269.8 	"/>
	<path class="st6" d="M2043.3,129c0-42.6-30.3-69.1-79-69.1l-75.3,0l0.1,231.2l22.4,0l-0.1-209.7l52.9,0c36.7,0,56.9,16.9,56.9,47.7
		c0,30.6-20.2,47.4-56.9,47.4l-9.5,0l0,21.4l0.1,0l71.8,93.2l28,0l-73.5-94.6C2020.3,190.8,2043.3,166.2,2043.3,129z"/>
	<path class="st6" d="M2190,162.4L2190,162.4c-43-10.2-59.8-23.1-59.8-46c0-28.1,28.1-38.2,54.4-38.2c25,0.3,45.8,7.4,63.5,21.7
		l0.4,0.3l12.2-17.9c-22.2-17.4-46-25.5-74.8-25.5c-48.1,0-78,22.7-78,59c0,45.2,44.2,60.5,77.4,68c52.6,12.1,62.2,25,62.2,46.3
		c0,38.1-41,42.2-58.7,42.2c-24.7,0-43.7-7.4-65.5-25.6l-0.5-0.4l-13.7,17.2l0.4,0.3c25.4,21.5,48.4,30.2,79.3,30.2
		c50,0,81.1-24.5,81.1-64C2269.8,189.5,2239.3,174.1,2190,162.4z"/>
	<path class="st6" d="M2498.8,290.9l-84.4-225.5c-1.1-3.3-4.3-5.6-7.8-5.6l-8.6,0c-3.4,0.1-6.3,2.3-7.4,5.4L2306.2,291l23.4,0
		l21.6-57.5l12-32.6l-0.1,0l39.4-106.6l39.5,106.5l-0.1,0l12,32.6l21.2,57.5L2498.8,290.9z"/>
</g>
</svg>
