<svg id="Layer_1" data-name="Layer 1" xmlns="http://www.w3.org/2000/svg" viewBox="0 0 113.77 110.66"><defs><style>.cls-1{fill:#00b1eb;}.cls-2{fill:#a1daf8;}.cls-3{fill:#65b33a;}.cls-4{fill:#004f9f;}.cls-5,.cls-6{fill:#17174b;}.cls-6{fill-rule:evenodd;}.cls-7{fill:none;stroke:#004f9f;stroke-miterlimit:10;stroke-width:0.4px;}.cls-8{fill:#1d1d1b;}</style></defs><title>OHSAS_18001</title><path class="cls-1" d="M151.55,75l-1.7.17c0,.25,0,.49,0,.74a50.64,50.64,0,0,1-23,42.4h3a52.27,52.27,0,0,0,21.7-42.4C151.56,75.61,151.56,75.3,151.55,75Zm-103,.91c0-.24,0-.48,0-.72L46.88,75c0,.3,0,.6,0,.9a52.31,52.31,0,0,0,21.69,42.4h3A50.64,50.64,0,0,1,48.57,75.91Z" transform="translate(-42.44 -18.69)"/><path class="cls-1" d="M155.56,74.59l-1.7.17c0,.38,0,.77,0,1.15a54.55,54.55,0,0,1-20.21,42.4h2.63a56.21,56.21,0,0,0,19.28-42.4C155.58,75.47,155.57,75,155.56,74.59Zm-111,1.32c0-.38,0-.75,0-1.13l-1.7-.18c0,.43,0,.87,0,1.31a56.21,56.21,0,0,0,19.28,42.4h2.63A54.55,54.55,0,0,1,44.55,75.91Z" transform="translate(-42.44 -18.69)"/><rect class="cls-2" x="21.2" y="39.23" width="71.15" height="11.36"/><rect class="cls-3" x="21.2" y="54.38" width="71.15" height="1.89"/><rect class="cls-4" x="21.2" y="58.16" width="71.15" height="3.78"/><polygon class="cls-5" points="36.27 67.62 36.27 77.09 38.08 77.09 38.08 70.25 45.55 77.09 47.06 77.09 47.06 67.62 45.24 67.62 45.24 74.46 37.78 67.62 36.27 67.62"/><polygon class="cls-5" points="92.35 77.09 92.35 75.42 85.44 75.42 85.44 67.62 83.62 67.62 83.62 77.09 92.35 77.09"/><polygon class="cls-5" points="54.9 77.09 56.29 77.09 61.48 67.62 59.44 67.62 55.62 74.83 51.8 67.62 49.72 67.62 54.9 77.09"/><path class="cls-5" d="M116,86.32c-1.67,0-3,.22-3.86,1a3.48,3.48,0,0,0-1,2.7v2a3.5,3.5,0,0,0,1,2.71c.84.78,2.19,1,3.86,1h6.12V90.32h-5.74V92h3.92v2.09h-4.78a2.88,2.88,0,0,1-2.08-.6,2.12,2.12,0,0,1-.51-1.6V90.19a2.11,2.11,0,0,1,.51-1.6,2.88,2.88,0,0,1,2.08-.6h6.6V86.32Z" transform="translate(-42.44 -18.69)"/><path class="cls-6" d="M65.45,88h4.88a2.91,2.91,0,0,1,2.08.6,2.11,2.11,0,0,1,.51,1.62v1.68a2.14,2.14,0,0,1-.51,1.62,2.91,2.91,0,0,1-2.08.6H65.45Zm9.28,2a3.48,3.48,0,0,0-1-2.7c-.84-.79-2.19-1-3.86-1h-6.2v9.46h6.2c1.67,0,3-.23,3.86-1a3.5,3.5,0,0,0,1-2.71Z" transform="translate(-42.44 -18.69)"/><rect class="cls-5" x="62.94" y="71.32" width="2.13" height="2.13"/><path class="cls-7" d="M99.21,120.1" transform="translate(-42.44 -18.69)"/><path class="cls-8" d="M45,66.47A1.57,1.57,0,0,0,43.26,68c-.11.79.06,1.63,1,1.76s1.16-1,1.58-2.09,1-2.17,2.36-2,1.9,1.77,1.72,3.06c-.22,1.58-1.19,2.81-2.91,2.57l.13-.89c1.19.16,1.84-.75,2-1.82.12-.85,0-1.83-1-2s-1.3,1-1.71,2.06-.89,2.19-2.19,2-1.89-1.57-1.71-2.86c.21-1.45,1.05-2.45,2.61-2.29Z" transform="translate(-42.44 -18.69)"/><path class="cls-8" d="M44,61.31l.28-1,7.62-.8-.28,1-2.28.19-.79,2.91,1.86,1.34-.26.94Zm3.85,1.79.64-2.34L44.94,61v0Z" transform="translate(-42.44 -18.69)"/><path class="cls-8" d="M45.47,56.39,47.23,52l.74.3-1.4,3.47,2.1.85,1.23-3,.75.3-1.24,3,3,1.23-.35.88Z" transform="translate(-42.44 -18.69)"/><path class="cls-8" d="M48,50.51l2.37-4.32.7.38-1.91,3.5,2,1.09,1.79-3.26.7.39-1.79,3.25L54,52.73l1.93-3.52.7.38L54.24,54Z" transform="translate(-42.44 -18.69)"/><path class="cls-8" d="M52.91,43.82l-1.37,1.94-.65-.46,3.29-4.66.65.46-1.37,1.95,5.18,3.65-.55.78Z" transform="translate(-42.44 -18.69)"/><path class="cls-8" d="M60.19,40.18l2.17,2-.63.7-2.17-1.95-5-.77.75-.84,4,.69-1.13-3.83.72-.8Z" transform="translate(-42.44 -18.69)"/><path class="cls-8" d="M66.78,31.41a1.56,1.56,0,0,0-2.29-.06c-.64.49-1.09,1.21-.52,1.94s1.52.1,2.59-.4,2.2-.88,3.06.22.13,2.6-.9,3.4c-1.26,1-2.8,1.19-3.87-.18l.71-.55a1.82,1.82,0,0,0,2.7.08c.68-.53,1.26-1.33.63-2.14s-1.61-.21-2.66.3-2.16.94-3-.09S63,31.49,64,30.69s2.45-1,3.46.17Z" transform="translate(-42.44 -18.69)"/><path class="cls-8" d="M72.68,30.13l1.49,2.51-.82.48-1.49-2.51-4.52-2.22,1-.58,3.57,1.84.07-4,.93-.55Z" transform="translate(-42.44 -18.69)"/><path class="cls-8" d="M78.81,24.75a1.55,1.55,0,0,0-2.2-.63c-.73.32-1.35.9-1,1.76s1.45.47,2.6.25,2.36-.3,2.92,1-.52,2.55-1.71,3.06c-1.47.64-3,.46-3.71-1.13l.82-.36a1.81,1.81,0,0,0,2.59.75c.79-.34,1.56-1,1.15-1.91s-1.51-.61-2.65-.38-2.33.38-2.85-.82.35-2.43,1.54-2.95c1.34-.58,2.63-.39,3.31,1Z" transform="translate(-42.44 -18.69)"/><path class="cls-8" d="M82.56,22.08l-2.28.69L80.05,22l5.47-1.64.23.77-2.28.68,1.82,6.08-.91.27Z" transform="translate(-42.44 -18.69)"/><path class="cls-8" d="M86.88,20.07l4.85-.86.15.78-3.92.7.4,2.24L92,22.28l.14.78-3.65.65.43,2.44,3.95-.71.14.79-4.88.87Z" transform="translate(-42.44 -18.69)"/><path class="cls-8" d="M93.7,18.93l1.3,0,2.45,5.92,2.06-6.07,1.3,0,.23,7.14-.89,0-.2-5.94h0l-2,6-.81,0L94.66,20.1h0l.2,5.94-.9,0Z" transform="translate(-42.44 -18.69)"/><path class="cls-8" d="M110.85,22.12a1.87,1.87,0,0,0-1.71-1.84c-1.68-.29-2.62,1-2.88,2.43s.2,3.07,1.89,3.37a2,2,0,0,0,2.38-1.68l.93.16a2.9,2.9,0,0,1-3.53,2.29c-2.19-.38-3-2.18-2.62-4.23s1.81-3.51,4-3.13a2.73,2.73,0,0,1,2.5,2.79Z" transform="translate(-42.44 -18.69)"/><path class="cls-8" d="M114,20.67l4.71,1.46-.23.76-3.81-1.18L114,23.88l3.55,1.1-.24.76-3.55-1.09L113,27l3.83,1.18-.23.77-4.74-1.47Z" transform="translate(-42.44 -18.69)"/><path class="cls-8" d="M120.47,22.81l3.06,1.39a1.9,1.9,0,0,1,1.2,2.6,1.71,1.71,0,0,1-1.88,1.13v0c.69.49.59,1.12.36,1.78a3.65,3.65,0,0,0-.43,2l-1-.44c-.12-.38.33-1,.5-1.71s.29-1.28-.55-1.67l-2.11-1-1.27,2.77-.86-.39Zm1.3,4.21c.81.36,1.6.47,2-.48a1.12,1.12,0,0,0-.65-1.63l-2.15-1-1,2.26Z" transform="translate(-42.44 -18.69)"/><path class="cls-8" d="M128,27.49l-2-1.23.42-.68,4.88,3-.42.68-2-1.23-3.29,5.41-.81-.49Z" transform="translate(-42.44 -18.69)"/><path class="cls-8" d="M132.28,29.32l.78.56-4.19,5.78-.77-.55Z" transform="translate(-42.44 -18.69)"/><path class="cls-8" d="M134.68,31.08l3.57,3.05-.52.6-2.84-2.42L133.41,34l2.5,2.13-.52.61-2.49-2.13-2.13,2.49-.72-.62Z" transform="translate(-42.44 -18.69)"/><path class="cls-8" d="M139.31,35.21l.67.67-5.06,5-.67-.68Z" transform="translate(-42.44 -18.69)"/><path class="cls-8" d="M143,42.6a1.88,1.88,0,0,0-.1-2.51c-1.08-1.31-2.62-1-3.77,0s-1.85,2.46-.76,3.78a2,2,0,0,0,2.9.27l.61.73a2.9,2.9,0,0,1-4.17-.56c-1.42-1.71-.84-3.58.76-4.91s3.65-1.48,5.05.22a2.72,2.72,0,0,1,.08,3.74Z" transform="translate(-42.44 -18.69)"/><path class="cls-8" d="M147.41,45.22l.55.89-4.58,6.15-.55-.89,1.41-1.8L142.64,47l-2.25.46-.52-.83Zm-3.93,1.62,1.28,2L147,46.12v0Z" transform="translate(-42.44 -18.69)"/><path class="cls-8" d="M149.55,50.6l-1.05-2.14.72-.35,2.52,5.12-.72.36L150,51.45l-5.69,2.81-.42-.86Z" transform="translate(-42.44 -18.69)"/><path class="cls-8" d="M152.16,54.42l.35.88-6.63,2.64-.35-.88Z" transform="translate(-42.44 -18.69)"/><path class="cls-8" d="M154.32,60.16c.62,2.18-.79,3.78-2.66,4.32s-3.91-.08-4.53-2.27.79-3.78,2.65-4.31S153.69,58,154.32,60.16ZM147.9,62c.47,1.67,2.12,2,3.5,1.56s2.63-1.51,2.15-3.18-2.12-2-3.51-1.57S147.42,60.32,147.9,62Z" transform="translate(-42.44 -18.69)"/><path class="cls-8" d="M155.44,65.38l.13,1-5.22,4.5v0l5.73-.77.12.89-7.07,1L149,71l5.18-4.47v0l-5.67.77-.12-.89Z" transform="translate(-42.44 -18.69)"/><path class="cls-8" d="M70.59,121.88c2.27,0,3.42,1.8,3.42,3.74a3.43,3.43,0,1,1-6.84,0C67.17,123.68,68.32,121.88,70.59,121.88Zm0,6.67c1.74,0,2.47-1.5,2.47-2.93s-.73-2.94-2.47-2.94-2.47,1.5-2.47,2.94S68.85,128.55,70.59,128.55Z" transform="translate(-42.44 -18.69)"/><path class="cls-8" d="M75.17,122.05h1v3.07h3.76v-3.07h1v7.13h-1v-3.27H76.12v3.27h-1Z" transform="translate(-42.44 -18.69)"/><path class="cls-8" d="M86.52,124.14a1.56,1.56,0,0,0-1.77-1.46c-.8,0-1.6.29-1.6,1.22s1.14,1,2.29,1.27,2.28.66,2.28,2-1.49,2.13-2.79,2.13c-1.6,0-3-.78-3-2.51h.9c0,1.19,1,1.71,2.08,1.71.86,0,1.81-.27,1.81-1.3s-1.14-1.14-2.28-1.39-2.29-.58-2.29-1.89,1.29-2.09,2.59-2.09c1.46,0,2.57.69,2.63,2.26Z" transform="translate(-42.44 -18.69)"/><path class="cls-8" d="M90.81,122.05h1l2.79,7.13H93.6L92.82,127h-3l-.8,2.14H88Zm-.71,4.19h2.42l-1.19-3.33h0Z" transform="translate(-42.44 -18.69)"/><path class="cls-8" d="M99.48,124.14a1.56,1.56,0,0,0-1.77-1.46c-.8,0-1.6.29-1.6,1.22s1.14,1,2.29,1.27,2.28.66,2.28,2-1.49,2.13-2.79,2.13c-1.6,0-3-.78-3-2.51h.9c0,1.19,1,1.71,2.08,1.71.86,0,1.81-.27,1.81-1.3s-1.14-1.14-2.28-1.39-2.29-.58-2.29-1.89,1.29-2.09,2.59-2.09c1.46,0,2.57.69,2.63,2.26Z" transform="translate(-42.44 -18.69)"/><path class="cls-8" d="M107.39,129.18h-.85v-5.07H104.7v-.68c1,0,1.85-.26,2-1.33h.65Z" transform="translate(-42.44 -18.69)"/><path class="cls-8" d="M112.12,122.1c1.55,0,2.15.91,2.15,1.81a1.64,1.64,0,0,1-1,1.47,1.7,1.7,0,0,1,1.26,1.76,2.39,2.39,0,0,1-4.76,0,1.78,1.78,0,0,1,1.24-1.76,1.6,1.6,0,0,1-1-1.47A1.89,1.89,0,0,1,112.12,122.1Zm.08,6.45a1.37,1.37,0,0,0,1.45-1.38,1.49,1.49,0,0,0-3,0A1.36,1.36,0,0,0,112.2,128.55Zm0-3.47a1.09,1.09,0,0,0,1.17-1.14,1.06,1.06,0,0,0-1.19-1.09,1.12,1.12,0,1,0,0,2.23Z" transform="translate(-42.44 -18.69)"/><path class="cls-8" d="M117.73,122.1c2.22,0,2.36,2,2.36,3.61s-.14,3.59-2.36,3.59-2.36-2-2.36-3.59S115.51,122.1,117.73,122.1Zm0,6.45c1.45,0,1.46-1.8,1.46-2.85s0-2.85-1.46-2.85-1.46,1.8-1.46,2.85S116.28,128.55,117.73,128.55Z" transform="translate(-42.44 -18.69)"/><path class="cls-8" d="M123.29,122.1c2.22,0,2.36,2,2.36,3.61s-.14,3.59-2.36,3.59-2.36-2-2.36-3.59S121.07,122.1,123.29,122.1Zm0,6.45c1.45,0,1.46-1.8,1.46-2.85s0-2.85-1.46-2.85-1.46,1.8-1.46,2.85S121.84,128.55,123.29,128.55Z" transform="translate(-42.44 -18.69)"/><path class="cls-8" d="M129.63,129.18h-.85v-5.07h-1.84v-.68c1,0,1.85-.26,2-1.33h.65Z" transform="translate(-42.44 -18.69)"/></svg>